<?xml version="1.0" standalone="no"?>
<!DOCTYPE svg PUBLIC "-//W3C//DTD SVG 1.1//EN" "http://www.w3.org/Graphics/SVG/1.1/DTD/svg11.dtd" >
<svg xmlns="http://www.w3.org/2000/svg" xmlns:xlink="http://www.w3.org/1999/xlink" version="1.1">
<metadata></metadata>
<defs>
<font id="vogueregular" horiz-adv-x="929" >
<font-face units-per-em="2048" ascent="1638" descent="-410" />
<missing-glyph horiz-adv-x="788" />
<glyph horiz-adv-x="0" />
<glyph unicode="&#xd;" horiz-adv-x="430" />
<glyph horiz-adv-x="0" />
<glyph horiz-adv-x="0" />
<glyph unicode=" "  horiz-adv-x="788" />
<glyph unicode="&#x09;" horiz-adv-x="788" />
<glyph unicode="&#xa0;" horiz-adv-x="788" />
<glyph unicode="!" horiz-adv-x="473" d="M111 1202q29 37 43 59.5t32 61.5l25 45q12 16 28.5 11t26.5 -21q12 -20 19 -33q20 -37 35.5 -64.5t44.5 -52.5q-20 -121 -36 -222t-28 -202.5t-21.5 -212t-15.5 -245.5h-57q-14 268 -40 491t-56 385zM152 84q0 43 26.5 73.5t61.5 30.5t60.5 -30.5t25.5 -73.5 q0 -47 -26 -77t-62 -30q-35 0 -60.5 31t-25.5 76z" />
<glyph unicode="," horiz-adv-x="428" d="M84 78q0 49 31.5 78.5t70.5 29.5q37 0 65 -19.5t47 -50t28.5 -69.5t9.5 -78q0 -57 -7 -100t-23.5 -79t-41 -68.5t-59.5 -67.5l-21 29q16 20 36 49.5t36 63.5t26.5 72t10.5 79q0 35 -10.5 73.5t-34.5 79.5l-15 -12q16 -49 -4 -77.5t-65 -28.5q-35 0 -57.5 27.5t-22.5 68.5 z" />
<glyph unicode="." horiz-adv-x="425" d="M131 84q0 43 26.5 73.5t61.5 30.5t60.5 -30.5t25.5 -73.5q0 -47 -25.5 -77t-62.5 -30q-35 0 -60.5 31t-25.5 76z" />
<glyph unicode="0" d="M76 694q0 154 37 295t129 252q47 57 104 94t127 37q80 0 143.5 -44t112.5 -116q76 -109 103.5 -248t27.5 -274q0 -78 -8 -157.5t-28.5 -154.5t-52.5 -143.5t-81 -123.5q-47 -53 -103.5 -88t-121.5 -35q-78 0 -136.5 36.5t-107.5 104.5q-43 57 -70.5 125t-44 141.5 t-23.5 149.5t-7 149zM281 676q0 -55 1 -127t4 -145.5t10 -139t19 -104.5q20 -59 54 -100.5t90 -41.5q72 0 104.5 45.5t50.5 122.5q12 53 18.5 118t9.5 131.5t3 133v123.5v117.5t-3 130.5t-9 129.5t-17 112.5q-16 76 -47.5 117.5t-97.5 41.5t-100.5 -42t-55.5 -113 q-12 -47 -19 -106.5t-10 -123t-4 -124t-1 -109.5v-47z" />
<glyph unicode="1" d="M166 1001v46q98 72 192.5 152.5t180.5 166.5h86v-1331h147v-35h-489q0 10 -1 18.5t-1 16.5h151l-2 1153q-59 -41 -131 -93.5t-133 -93.5z" />
<glyph unicode="2" d="M53 0q14 61 41 111.5t59.5 94.5t70.5 84t79 81q55 57 107.5 117.5t94.5 132t67.5 159.5t25.5 203q0 66 -13.5 129.5t-42 112.5t-72.5 79.5t-105 30.5q-37 0 -80 -18.5t-79 -51t-59.5 -77.5t-23.5 -96q0 -35 9 -41.5t26 -3.5h12q41 0 65.5 -23t24.5 -76q0 -43 -23.5 -71.5 t-58.5 -28.5q-29 0 -48 15.5t-32.5 40t-19.5 54t-6 58.5q0 88 29.5 155.5t78.5 112.5t112.5 67.5t131.5 22.5q74 0 144.5 -23.5t126 -71.5t89 -120t33.5 -168q0 -98 -32.5 -177t-86 -144.5t-120 -123t-134.5 -112.5q-63 -51 -123.5 -103t-119.5 -124l587 -2l31 174h31 q-12 -82 -19.5 -155.5t-15.5 -155.5q0 -16 -3 -34t-5 -34h-754z" />
<glyph unicode="3" d="M66 240q0 59 26.5 105t79.5 46q37 0 60.5 -28.5t23.5 -71.5q0 -55 -36 -81t-81 -13l-16 -21q2 -47 33.5 -75.5t74.5 -45t86 -22.5t68 -6q55 0 101 30.5t78 79.5t49.5 111t17.5 123q0 135 -36 211.5t-96.5 114.5t-140 46.5t-168.5 8.5q2 10 3 30h30q74 0 142.5 4.5t122 33 t85 90t31.5 175.5q0 113 -49 183.5t-147 70.5q-23 0 -57 -8t-66.5 -24.5t-58 -41t-27.5 -55.5l4 -24l33 6q33 -14 51 -30.5t18 -57.5q0 -39 -24.5 -66.5t-55.5 -27.5q-39 0 -61.5 35.5t-22.5 80.5q0 68 30 115t75 77t98 43t100 13q55 0 119 -16.5t118 -51t89 -91t35 -138.5 q0 -66 -21.5 -115t-57.5 -84.5t-85 -62.5t-104 -47q63 -23 121.5 -54.5t101.5 -75.5t68.5 -102.5t25.5 -138.5q0 -102 -44 -179t-111.5 -128t-148.5 -76.5t-155 -25.5q-49 0 -106.5 12t-106.5 42t-82.5 78t-33.5 120zM172 731h18v21h-8z" />
<glyph unicode="4" d="M25 489l6 13v-2l592 899h34l-499 -776h338v313l198 270v-583h162v-142h-162v-446h158v-35h-514v35h154v446h-453q-14 0 -14 8z" />
<glyph unicode="5" d="M66 258q0 53 26.5 94t73.5 41q35 0 59.5 -26.5t24.5 -67.5q0 -57 -32 -71.5t-71 -14.5q-16 0 -20 -12.5t-4 -28.5q0 -43 29.5 -72.5t69.5 -47t83 -25t68 -7.5q68 0 118 33t83.5 87.5t50 124t16.5 145.5t-13.5 147.5t-44 126.5t-80.5 89t-124 34q-61 0 -116.5 -20.5 t-104.5 -67.5l-19 12q31 131 31 273q0 43 -5 87t-9 87q-6 41 -10.5 79.5t-4.5 73.5q0 16 28 25.5t64.5 14.5t71.5 6t47 1q41 0 83 -5t83 -13q43 -6 84 -12.5t84 -6.5q18 0 23.5 20.5t5.5 37.5h28v-35q0 -100 -51 -163.5t-137 -63.5q-29 0 -59.5 4t-61.5 10t-62.5 11t-64.5 5 q-25 0 -51.5 -7t-56.5 -23q2 -20 3 -44t1 -44q0 -27 -3 -55.5t-5 -57.5q-4 -29 -6.5 -57.5t-2.5 -59.5v-31q115 57 224 58q80 0 160.5 -24.5t145 -77t105.5 -131t41 -187.5q0 -123 -42 -207t-110.5 -135t-154.5 -73.5t-172 -22.5q-53 0 -109.5 14t-102.5 47t-75.5 84 t-29.5 125z" />
<glyph unicode="6" d="M76 530q0 162 63 330q29 86 79 162t120 152q129 147 436 227l4 -29q-111 -31 -192.5 -80t-134.5 -114q-111 -137 -144 -379q111 68 199 67q156 0 258 -114q100 -119 100 -297q0 -190 -116 -328q-111 -137 -273 -137q-174 0 -282 153q-117 150 -117 387zM274 444 q8 -225 54.5 -324.5t152.5 -99.5q80 0 136.5 99.5t62.5 320.5q-12 377 -195 387q-127 0 -170 -120q-16 -55 -28.5 -123t-12.5 -140z" />
<glyph unicode="7" d="M66 1036q8 66 13 126.5t11 125.5q2 20 5 40t5 38h793l-225 -555h2q-12 -29 -32 -79t-43.5 -111.5t-47 -128t-43 -128t-31.5 -111.5t-12 -77q0 -20 14 -20q4 0 17 4q10 8 24 8q33 0 54.5 -26.5t21.5 -63.5q0 -90 -78 -90q-53 0 -75.5 47t-22.5 104q0 43 17.5 123t46 178.5 t62 206t67.5 205.5t61.5 178t44.5 123h-580q-16 -20 -24.5 -53t-14.5 -60v-4h-30z" />
<glyph unicode="8" d="M68 336q0 80 28.5 140.5t74.5 106.5t103.5 78.5t112.5 57.5l-2 26q-47 16 -93 42t-84 62t-61.5 84t-23.5 114q0 82 31.5 143t83 101t114 60.5t123.5 20.5q59 0 119.5 -19.5t109 -58.5t79 -98t30.5 -141q0 -66 -26.5 -116t-69.5 -89t-95.5 -67.5t-103.5 -49.5 q59 -25 121.5 -58.5t113 -79.5t83 -105.5t32.5 -137.5q0 -94 -37.5 -162.5t-96 -113.5t-131.5 -66.5t-140 -21.5q-68 0 -138.5 19.5t-127 60.5t-93 107.5t-36.5 160.5zM268 354q0 -68 7.5 -128t29 -106t62.5 -74t108 -28q61 0 99 27t60.5 71t31 102t8.5 120q0 61 -6 127.5 t-26.5 122t-60.5 91.5t-110 36q-68 0 -107.5 -33t-61 -85t-28 -116.5t-6.5 -126.5zM309 1059q0 -53 4 -107.5t20.5 -100.5t49.5 -74.5t92 -28.5q51 0 80 31.5t43 78.5t17 101.5t3 99.5q0 43 -5 92t-20 91t-44 70.5t-74 28.5q-49 0 -82 -25.5t-51 -66.5t-25.5 -91t-7.5 -99z " />
<glyph unicode="9" d="M70 907q0 186 116 328q113 137 273 137q174 0 284 -153q115 -156 115 -388q0 -172 -62.5 -331.5t-199.5 -311.5q-137 -147 -432 -227l-6 29q113 31 193.5 80t133.5 114q53 66 89 160t53 217q-109 -66 -197 -65q-156 0 -260 114q-49 59 -74.5 132t-25.5 165zM254 922 q14 -377 195 -387q129 0 169 120q20 53 32 121t9 142q-8 225 -54 324t-150 99q-82 0 -137.5 -99t-63.5 -320z" />
<glyph unicode=":" horiz-adv-x="425" d="M125 633q0 43 26.5 72.5t61.5 29.5t60.5 -29.5t25.5 -72.5q0 -47 -25.5 -77t-62.5 -30q-35 0 -60.5 31t-25.5 76zM127 88q0 43 26.5 74t61.5 31t61.5 -31t26.5 -74q0 -47 -25.5 -76.5t-62.5 -29.5t-62.5 30.5t-25.5 75.5z" />
<glyph unicode=";" horiz-adv-x="428" d="M84 78q0 49 31.5 78.5t70.5 29.5q37 0 65 -19.5t47 -50t28.5 -69.5t9.5 -78q0 -57 -7 -100t-23.5 -79t-41 -68.5t-59.5 -67.5l-21 29q16 20 36 49.5t36 63.5t26.5 72t10.5 79q0 35 -10.5 73.5t-34.5 79.5l-15 -12q16 -49 -4 -77.5t-65 -28.5q-35 0 -57.5 27.5t-22.5 68.5 zM113 633q0 43 26.5 72.5t61.5 29.5t60.5 -29.5t25.5 -72.5q0 -47 -25.5 -77t-62.5 -30t-61.5 31t-24.5 76z" />
<glyph unicode="?" horiz-adv-x="675" d="M94 1171q0 53 21.5 96.5t55.5 73t76 45t83 15.5q125 0 201.5 -92t76.5 -244q0 -37 -3 -76t-15 -76q-31 -94 -92.5 -159.5t-116.5 -112.5q-31 -25 -57.5 -50.5t-48 -54t-34 -62.5t-12.5 -77q0 -20 2 -38.5t7 -39.5l-31 -6q-25 63 -39 126t-14 110q0 66 21.5 120t54 99 t73.5 82t82 72q33 27 62.5 53t53 55t38 59.5t14.5 65.5q0 53 -20.5 93t-53.5 65.5t-72.5 39t-76.5 13.5q-18 0 -47 -7t-57.5 -20.5t-49 -36t-20.5 -53.5q0 -14 14 -20t23 -6q72 -14 71 -97q0 -41 -22.5 -66.5t-57.5 -25.5q-23 0 -39 12.5t-27.5 33t-17.5 44t-6 47.5zM152 84 q0 43 25.5 73.5t62.5 30.5q35 0 60.5 -30.5t25.5 -73.5q0 -47 -27 -77t-61 -30q-37 0 -61.5 31t-24.5 76zM238 319l6 -14l16 21z" />
<glyph unicode="A" horiz-adv-x="1097" d="M-10 0v35q45 0 73.5 6t47 22.5t31 48t28.5 81.5q88 299 178 596.5t180 596.5h70l436 -1351h90v-35h-489v35h137l-131 411h-356l-15 -40q-10 -31 -24.5 -78t-27.5 -94.5t-23.5 -86t-10.5 -53.5q0 -25 19.5 -37t46 -17t54.5 -5h44h4v-35h-362zM295 481h336l-172 537z" />
<glyph unicode="B" horiz-adv-x="1095" d="M55 0v35h111v1296h-111v35h412q76 0 166 -6t168 -38t130 -98.5t52 -187.5t-62.5 -199.5t-160.5 -105.5v-20q55 -16 104 -43t86 -68t57.5 -97.5t20.5 -131.5q0 -123 -43 -197t-110.5 -112.5t-151.5 -50t-164 -11.5h-504zM393 35h113q125 0 202.5 85t77.5 236 q0 113 -28.5 182.5t-80.5 107.5t-124 51.5t-160 13.5v-676zM393 743h29q57 0 116.5 9.5t108.5 40t80 86t31 147.5q0 72 -25.5 130t-66.5 99t-93.5 62.5t-107.5 21.5q-16 0 -33.5 -3t-38.5 -7v-586z" />
<glyph unicode="C" horiz-adv-x="1128" d="M84 657q0 139 36 271.5t103.5 234t165.5 162.5t225 61q55 0 98.5 -17t80 -37.5t69.5 -38t70 -17.5q25 0 37 13.5t16 41.5h37v-413h-41q-4 74 -31.5 148.5t-70.5 135t-101.5 98t-124.5 37.5t-112.5 -34.5t-79.5 -92t-52.5 -130t-30.5 -147.5t-14.5 -147.5t-3.5 -128.5 q0 -104 12.5 -211.5t49.5 -196.5t104.5 -145.5t178.5 -56.5q59 0 108 44t86 110.5t60.5 143.5t31.5 142h31v-487h-31q0 18 -2 38.5t-8 38t-17.5 30t-29.5 12.5q-10 0 -27.5 -10.5t-40.5 -26.5q-41 -33 -105.5 -69t-152.5 -36q-121 0 -218 54.5t-164.5 146.5t-104.5 216 t-37 263z" />
<glyph unicode="D" horiz-adv-x="1261" d="M55 0v35h117v1294h-117v37h424q143 0 272.5 -33t226.5 -111.5t154.5 -211.5t57.5 -332q0 -195 -54.5 -325t-147.5 -207.5t-217 -111.5t-265 -34h-451zM414 35q147 0 247.5 40t162 122t88 205.5t26.5 291.5q0 137 -28.5 254t-87 202t-147.5 133t-210 48l-51 -2v-1294z" />
<glyph unicode="E" horiz-adv-x="1142" d="M55 0v35h103v1296h-103v35h1026l2 -336h-34q-16 113 -58.5 173.5t-103 88t-137 30.5t-164.5 3h-180v-604h53q63 0 111 4t81 26.5t49.5 70.5t18.5 134h33v-516h-33q-2 78 -15.5 124t-38 69.5t-59.5 31t-80 7.5h-120v-631h198q94 0 175 5t140.5 39t94.5 107.5t35 210.5h34 v-403h-1028z" />
<glyph unicode="F" horiz-adv-x="1042" d="M55 0v35h101v1296h-101v35h946l3 -360h-37q-4 121 -33 187.5t-79 97t-118.5 35.5t-150.5 5h-193v-608h68q70 0 123 3t89 26.5t53 74t17 146.5h33v-537h-33q-2 80 -18 128t-45 74t-68 34t-88 8h-57q-16 0 -36.5 -1t-37.5 -1v-643h121v-35h-459z" />
<glyph unicode="G" horiz-adv-x="1239" d="M84 659q0 141 40 272.5t113.5 231t175 158.5t224.5 59q49 0 90 -16t78 -35.5t69.5 -36t67.5 -16.5q29 0 37 19.5t10 47.5h39v-415h-41q-10 76 -33.5 147.5t-60.5 126.5t-90 88t-123 33q-113 0 -178.5 -66.5t-99 -165t-44 -210t-12.5 -201.5q-1 -19 -1 -39q0 -41 3 -88 q4 -70 16.5 -140.5t34 -138t56 -120t84 -84t114.5 -31.5q92 0 158 55.5t66 177.5v340h-121v35h479v-35h-119l-4 -602q-25 53 -47.5 69.5t-48 11.5t-55 -21.5t-66.5 -28.5q-59 -25 -121.5 -42t-130.5 -17q-127 0 -229.5 49t-176 139t-113.5 214t-40 275z" />
<glyph unicode="H" horiz-adv-x="1388" d="M55 0v35h123l-10 1296h-113v35h500v-35h-133v-612h555v612h-129v35h500v-35h-129v-1296h129v-35h-500v35h129v641h-555v-641h133v-35h-500z" />
<glyph unicode="I" horiz-adv-x="630" d="M63 0v35h130v1296h-130v35h510v-35h-147v-1296h147v-35h-510z" />
<glyph unicode="J" horiz-adv-x="651" d="M45 25q0 47 23.5 82.5t66.5 35.5q31 0 48.5 -26.5t17.5 -67.5t-23.5 -58.5t-64.5 -35.5q55 -59 102 -59q37 0 62.5 30.5t25.5 96.5q0 23 -6 45t-16 47q-12 31 -21.5 67.5t-9.5 71.5v1077h-139v35h505v-35h-129v-1104q0 -80 -14 -147.5t-46 -116.5t-82 -77.5t-120 -28.5 q-33 0 -65.5 10t-58 30.5t-41 52.5t-15.5 75z" />
<glyph unicode="K" horiz-adv-x="1226" d="M55 0v35h119v1296h-119v35h461v-35h-106v-618l411 448v-2q86 92 86 131q0 25 -19.5 33t-58.5 8h-84v35h472v-35q-16 1 -31 1q-140 0 -217 -68q-78 -78 -170 -180.5t-197 -223.5l524 -825h121v-35h-540v35h143l-426 663l-14 -41v-622h114v-35h-469z" />
<glyph unicode="L" horiz-adv-x="1105" d="M55 0v35h129v1296h-129v35h504v-35h-143v-1296h239q94 0 165 9t118 50t70.5 125t23.5 234h33v-453h-1010z" />
<glyph unicode="M" horiz-adv-x="1462" d="M35 37h8v12zM43 0v37h25h20q39 0 71 6q40 8 46 63q2 18 4 77t3 142t1 184v206q0 113 -1 222.5t-2 195.5t-4 140t-7 58h-150v35h395l322 -924l319 924h336v-35h-110v-1296h110v-35h-473v37h115l2 1093l-16 5q-94 -279 -189.5 -556.5t-193.5 -555.5l-402 1136l-16 -4v-932 v-83.5t4 -41.5q2 -25 18.5 -38t40 -19t49 -6h50.5h14v-35h-381z" />
<glyph unicode="N" horiz-adv-x="1282" d="M43 0v35q61 0 96 3t50.5 20.5t18.5 53t3 103.5v1090l-27 26h-141v35h412l594 -975v770q0 66 -3.5 100.5t-15.5 50t-35.5 17.5t-64.5 2h-45v35h370v-35h-47q-41 0 -65.5 -2t-36.5 -17.5t-15.5 -50t-3.5 -100.5v-1171h-102l-735 1216v-956q0 -82 2 -126t17.5 -63.5 t50 -22.5t100.5 -3v-35h-377z" />
<glyph unicode="O" horiz-adv-x="1218" d="M84 696q0 127 42 252t114.5 223.5t168.5 160t207 61.5q117 0 214.5 -62.5t168 -164t109.5 -229.5t39 -257q0 -131 -39 -257t-109.5 -225.5t-168 -161t-214.5 -61.5q-119 0 -217 62.5t-167.5 165t-108.5 231.5t-39 262zM326 686q0 -59 3 -132t13 -147.5t28.5 -146.5 t50.5 -128t79 -90t114 -34q68 0 115 35t78 91t47 129t24.5 147.5t10.5 147.5t2 130q0 51 -3 121t-13.5 143.5t-28 147.5t-48 131t-73.5 93t-104 36q-66 0 -113 -34t-80 -90t-52.5 -127t-30.5 -145.5t-15 -147.5t-4 -130z" />
<glyph unicode="P" horiz-adv-x="1054" d="M55 0v35h123v1296h-123v35h480q78 0 163.5 -14.5t157.5 -55.5t119 -114.5t47 -190.5q0 -106 -42 -181t-106.5 -121t-143.5 -67.5t-155 -21.5q-41 0 -80.5 6t-80.5 35l-2 -606h131v-35h-488zM414 680q55 -41 125 -41q59 0 108 24.5t84 69.5t53.5 104.5t18.5 131.5 q0 98 -23.5 167.5t-68.5 113.5t-107.5 64.5t-138.5 20.5q-6 0 -19.5 -2t-29.5 -4z" />
<glyph unicode="Q" horiz-adv-x="1218" d="M84 690q0 127 41 253t112.5 225.5t168 162t208.5 62.5q117 0 214.5 -62.5t168 -164t110.5 -228.5t40 -258q0 -117 -30 -226.5t-84 -201.5t-131 -162t-173 -106l-2 -195q0 -51 14.5 -83t39 -49t56 -23.5t66.5 -6.5q25 0 46.5 2t43.5 4v-39q-29 -2 -50 -3t-50 -1 q-27 0 -72 6.5t-93 16.5t-91 24.5t-62 32.5q-25 20 -37 54t-17 73t-6 79t-1 73v35q-98 33 -178 103.5t-136.5 164.5t-86 206.5t-29.5 231.5zM319 686q0 -59 4.5 -133t15.5 -148.5t32.5 -146.5t55.5 -127t83 -89t117 -34q61 0 105 36t75 94.5t48 132t26.5 149.5t12.5 145.5 t3 120.5q0 53 -4 124t-15.5 145.5t-30 147.5t-49 130t-74.5 92t-103 35q-68 0 -116 -34t-82 -88t-54.5 -126t-31.5 -146.5t-14.5 -147.5t-3.5 -132z" />
<glyph unicode="R" horiz-adv-x="1193" d="M55 0v35h113v1296h-113v35h592q68 0 133.5 -16.5t115.5 -54.5t82 -100t32 -157q0 -72 -21.5 -125t-58.5 -91t-86 -62.5t-105 -36.5v-23q86 -23 134.5 -72.5t73 -113t30.5 -134.5t8 -134q2 -45 5 -85t11.5 -70t24.5 -47t45 -17q18 0 34.5 5t33.5 11q2 0 4 2l12 -31 q-35 -16 -68.5 -22t-68.5 -6q-90 0 -141.5 26.5t-79 73.5t-36.5 112.5t-16 145.5q-2 25 -4 51.5t-6 55.5q-10 88 -41.5 137t-78 72.5t-103.5 28.5t-119 5v-659h125v-35h-463zM393 727h66q57 0 113.5 16.5t99.5 52t69.5 92t26.5 138.5q0 92 -24.5 151.5t-67.5 93.5t-100.5 47 t-122.5 13h-60v-604z" />
<glyph unicode="S" horiz-adv-x="962" d="M94 958q0 18 1 41t5 45q23 166 113 247t244 89h11q79 0 132 -26q57 -28 94 -56q34 -28 56 -28h2q29 0 35 27.5t6 52.5h32v-412h-34q-14 90 -39 165t-65 127t-97.5 80.5t-136.5 28.5q-53 0 -102.5 -14t-85.5 -44q-35 -30 -55 -77q-16 -37 -16 -86q0 -13 1 -26 q4 -55 28.5 -95.5t63.5 -70t88 -52t102 -43.5q68 -27 136.5 -60.5t127 -83.5t98.5 -121.5t50 -174.5q1 -12 1 -24q0 -80 -24 -147q-28 -77 -78.5 -132t-121 -85t-152.5 -30q-80 0 -141.5 23.5t-106.5 46.5q-25 14 -46 23.5t-42 9.5q-23 0 -32 -33t-11 -57h-31v501h31 q8 -104 33 -189t71 -146.5t115.5 -95t165.5 -33.5q59 0 107.5 18t80.5 52q30 34 42 81q5 21 6 44q0 28 -8 58q-16 59 -79 96.5t-147 76.5q-72 33 -146.5 71.5t-138 97t-103.5 140.5t-40 200z" />
<glyph unicode="T" horiz-adv-x="1077" d="M27 954q4 106 5 207t5 205h1014q2 -104 3 -204.5t3 -207.5h-33q0 125 -16.5 200t-56.5 115t-108.5 51t-176.5 11v-1296h139v-35h-526v35h145v1296h-29q-98 0 -161.5 -15.5t-101.5 -57t-53.5 -114.5t-15.5 -190h-36z" />
<glyph unicode="U" horiz-adv-x="1275" d="M37 1331v35h518v-35h-131v-882q0 -94 11 -173t43 -136.5t87.5 -90.5t141.5 -33q94 0 160.5 34t106.5 96.5t58.5 151.5t18.5 198v667q0 66 -7.5 100.5t-23.5 51t-43 18.5q-14 1 -30.5 1t-35.5 -1q-10 0 -21 -1t-26 -1v35h398v-35h-33q-41 0 -66.5 -2t-41 -17.5t-20.5 -50 t-5 -98.5v-698q0 -266 -107.5 -380t-322.5 -114q-68 0 -149 10.5t-153.5 42t-127 89t-66.5 151.5q-4 23 -4 57.5v75.5v934h-129z" />
<glyph unicode="V" horiz-adv-x="1071" d="M-25 1331v35h504v-35h-131l285 -942q66 195 110.5 332t75.5 231.5t48.5 150.5t25.5 89t10 48t2 26q0 27 -15.5 40t-39 19t-49 6h-43.5h-6v35h376v-35h-16q-49 0 -75.5 -3t-43 -18.5t-29 -48t-30.5 -90.5l-402 -1224l-448 1384h-109z" />
<glyph unicode="W" horiz-adv-x="1505" d="M-27 1331v35h1147v-35q-63 0 -101 -10t-60.5 -33.5t-37 -62.5t-28.5 -97l-33 -122l187 -662q14 41 33.5 98.5t33.5 100.5q20 61 45 136t50.5 150.5t48 148.5t41 133t28.5 102t10 57q0 25 -15 38t-36.5 18t-43 5h-36.5h-2v35h365v-35q-61 0 -94 -3t-52.5 -18.5t-33 -49 t-33.5 -93.5l-10 -30l-381 -1184h-33l-193 672l-190 -672q-12 0 -25.5 -1t-23.5 -1l-424 1380h-103zM305 1331l303 -1009l107 358l-201 651h-209zM764 1331l78 -274q2 4 11 36.5t20.5 71.5t20.5 74t9 43q0 18 -9 27.5t-22.5 14.5t-27 6t-21.5 1h-59z" />
<glyph unicode="X" horiz-adv-x="1142" d="M-31 0v35h21q14 -1 28 -1q29 0 62 3q49 4 88 37q14 12 34.5 41.5t56.5 92t91.5 167t138.5 266.5l-327 690h-109v35h496v-35h-125l221 -457q72 129 113 205t62.5 118t27.5 60.5t6 30.5q0 31 -20.5 37t-36.5 6h-95v35h394v-35h-11q-35 0 -76.5 -5t-70.5 -30 q-12 -12 -28.5 -32.5t-45 -68.5t-76 -134t-122.5 -227l389 -799h131v-35h-535v35h137l-278 565l-164 -313q-31 -57 -49 -93t-29.5 -59.5t-15.5 -35t-4 -19.5q0 -18 10 -27.5t24.5 -13.5t28 -4h19.5h82v-35h-443z" />
<glyph unicode="Y" horiz-adv-x="989" d="M-47 1331v35h489v-35h-129l273 -708l198 485q6 12 14.5 35.5t16.5 49.5t14.5 49.5t6.5 37.5q0 35 -32 44t-69 9q-14 0 -26.5 -1t-22.5 -1h-4v35h362v-33h-43q-29 0 -47 -5t-33.5 -20.5t-28.5 -44t-32 -73.5l-256 -645v-510h131v-35h-481v35h129v463l-322 833h-108z" />
<glyph unicode="Z" horiz-adv-x="1062" d="M66 0l657 1325h-88q-139 0 -230.5 -11t-138.5 -38v2q-100 -51 -100 -211v-80h-33v379h883l-674 -1331h150q133 0 226 14t152.5 47t87 84t27.5 123v92h35v-395h-954z" />
<glyph unicode="a" horiz-adv-x="1097" d="M-10 0v35q45 0 73.5 6t47 22.5t31 48t28.5 81.5q88 299 178 596.5t180 596.5h70l436 -1351h90v-35h-489v35h137l-131 411h-356l-15 -40q-10 -31 -24.5 -78t-27.5 -94.5t-23.5 -86t-10.5 -53.5q0 -25 19.5 -37t46 -17t54.5 -5h44h4v-35h-362zM295 481h336l-172 537z" />
<glyph unicode="b" horiz-adv-x="1095" d="M55 0v35h111v1296h-111v35h412q76 0 166 -6t168 -38t130 -98.5t52 -187.5t-62.5 -199.5t-160.5 -105.5v-20q55 -16 104 -43t86 -68t57.5 -97.5t20.5 -131.5q0 -123 -43 -197t-110.5 -112.5t-151.5 -50t-164 -11.5h-504zM393 35h113q125 0 202.5 85t77.5 236 q0 113 -28.5 182.5t-80.5 107.5t-124 51.5t-160 13.5v-676zM393 743h29q57 0 116.5 9.5t108.5 40t80 86t31 147.5q0 72 -25.5 130t-66.5 99t-93.5 62.5t-107.5 21.5q-16 0 -33.5 -3t-38.5 -7v-586z" />
<glyph unicode="c" horiz-adv-x="1128" d="M84 657q0 139 36 271.5t103.5 234t165.5 162.5t225 61q55 0 98.5 -17t80 -37.5t69.5 -38t70 -17.5q25 0 37 13.5t16 41.5h37v-413h-41q-4 74 -31.5 148.5t-70.5 135t-101.5 98t-124.5 37.5t-112.5 -34.5t-79.5 -92t-52.5 -130t-30.5 -147.5t-14.5 -147.5t-3.5 -128.5 q0 -104 12.5 -211.5t49.5 -196.5t104.5 -145.5t178.5 -56.5q59 0 108 44t86 110.5t60.5 143.5t31.5 142h31v-487h-31q0 18 -2 38.5t-8 38t-17.5 30t-29.5 12.5q-10 0 -27.5 -10.5t-40.5 -26.5q-41 -33 -105.5 -69t-152.5 -36q-121 0 -218 54.5t-164.5 146.5t-104.5 216 t-37 263z" />
<glyph unicode="d" horiz-adv-x="1261" d="M55 0v35h117v1294h-117v37h424q143 0 272.5 -33t226.5 -111.5t154.5 -211.5t57.5 -332q0 -195 -54.5 -325t-147.5 -207.5t-217 -111.5t-265 -34h-451zM414 35q147 0 247.5 40t162 122t88 205.5t26.5 291.5q0 137 -28.5 254t-87 202t-147.5 133t-210 48l-51 -2v-1294z" />
<glyph unicode="e" horiz-adv-x="1142" d="M55 0v35h103v1296h-103v35h1026l2 -336h-34q-16 113 -58.5 173.5t-103 88t-137 30.5t-164.5 3h-180v-604h53q63 0 111 4t81 26.5t49.5 70.5t18.5 134h33v-516h-33q-2 78 -15.5 124t-38 69.5t-59.5 31t-80 7.5h-120v-631h198q94 0 175 5t140.5 39t94.5 107.5t35 210.5h34 v-403h-1028z" />
<glyph unicode="f" horiz-adv-x="1042" d="M55 0v35h101v1296h-101v35h946l3 -360h-37q-4 121 -33 187.5t-79 97t-118.5 35.5t-150.5 5h-193v-608h68q70 0 123 3t89 26.5t53 74t17 146.5h33v-537h-33q-2 80 -18 128t-45 74t-68 34t-88 8h-57q-16 0 -36.5 -1t-37.5 -1v-643h121v-35h-459z" />
<glyph unicode="g" horiz-adv-x="1239" d="M84 659q0 141 40 272.5t113.5 231t175 158.5t224.5 59q49 0 90 -16t78 -35.5t69.5 -36t67.5 -16.5q29 0 37 19.5t10 47.5h39v-415h-41q-10 76 -33.5 147.5t-60.5 126.5t-90 88t-123 33q-113 0 -178.5 -66.5t-99 -165t-44 -210t-12.5 -201.5q-1 -19 -1 -39q0 -41 3 -88 q4 -70 16.5 -140.5t34 -138t56 -120t84 -84t114.5 -31.5q92 0 158 55.5t66 177.5v340h-121v35h479v-35h-119l-4 -602q-25 53 -47.5 69.5t-48 11.5t-55 -21.5t-66.5 -28.5q-59 -25 -121.5 -42t-130.5 -17q-127 0 -229.5 49t-176 139t-113.5 214t-40 275z" />
<glyph unicode="h" horiz-adv-x="1388" d="M55 0v35h123l-10 1296h-113v35h500v-35h-133v-612h555v612h-129v35h500v-35h-129v-1296h129v-35h-500v35h129v641h-555v-641h133v-35h-500z" />
<glyph unicode="i" horiz-adv-x="630" d="M63 0v35h130v1296h-130v35h510v-35h-147v-1296h147v-35h-510z" />
<glyph unicode="j" horiz-adv-x="651" d="M45 25q0 47 23.5 82.5t66.5 35.5q31 0 48.5 -26.5t17.5 -67.5t-23.5 -58.5t-64.5 -35.5q55 -59 102 -59q37 0 62.5 30.5t25.5 96.5q0 23 -6 45t-16 47q-12 31 -21.5 67.5t-9.5 71.5v1077h-139v35h505v-35h-129v-1104q0 -80 -14 -147.5t-46 -116.5t-82 -77.5t-120 -28.5 q-33 0 -65.5 10t-58 30.5t-41 52.5t-15.5 75z" />
<glyph unicode="k" horiz-adv-x="1226" d="M55 0v35h119v1296h-119v35h461v-35h-106v-618l411 448v-2q86 92 86 131q0 25 -19.5 33t-58.5 8h-84v35h472v-35q-16 1 -31 1q-140 0 -217 -68q-78 -78 -170 -180.5t-197 -223.5l524 -825h121v-35h-540v35h143l-426 663l-14 -41v-622h114v-35h-469z" />
<glyph unicode="l" horiz-adv-x="1105" d="M55 0v35h129v1296h-129v35h504v-35h-143v-1296h239q94 0 165 9t118 50t70.5 125t23.5 234h33v-453h-1010z" />
<glyph unicode="m" horiz-adv-x="1462" d="M35 37h8v12zM43 0v37h25h20q39 0 71 6q40 8 46 63q2 18 4 77t3 142t1 184v206q0 113 -1 222.5t-2 195.5t-4 140t-7 58h-150v35h395l322 -924l319 924h336v-35h-110v-1296h110v-35h-473v37h115l2 1093l-16 5q-94 -279 -189.5 -556.5t-193.5 -555.5l-402 1136l-16 -4v-932 v-83.5t4 -41.5q2 -25 18.5 -38t40 -19t49 -6h50.5h14v-35h-381z" />
<glyph unicode="n" horiz-adv-x="1282" d="M43 0v35q61 0 96 3t50.5 20.5t18.5 53t3 103.5v1090l-27 26h-141v35h412l594 -975v770q0 66 -3.5 100.5t-15.5 50t-35.5 17.5t-64.5 2h-45v35h370v-35h-47q-41 0 -65.5 -2t-36.5 -17.5t-15.5 -50t-3.5 -100.5v-1171h-102l-735 1216v-956q0 -82 2 -126t17.5 -63.5 t50 -22.5t100.5 -3v-35h-377z" />
<glyph unicode="o" horiz-adv-x="1218" d="M84 696q0 127 42 252t114.5 223.5t168.5 160t207 61.5q117 0 214.5 -62.5t168 -164t109.5 -229.5t39 -257q0 -131 -39 -257t-109.5 -225.5t-168 -161t-214.5 -61.5q-119 0 -217 62.5t-167.5 165t-108.5 231.5t-39 262zM326 686q0 -59 3 -132t13 -147.5t28.5 -146.5 t50.5 -128t79 -90t114 -34q68 0 115 35t78 91t47 129t24.5 147.5t10.5 147.5t2 130q0 51 -3 121t-13.5 143.5t-28 147.5t-48 131t-73.5 93t-104 36q-66 0 -113 -34t-80 -90t-52.5 -127t-30.5 -145.5t-15 -147.5t-4 -130z" />
<glyph unicode="p" horiz-adv-x="1054" d="M55 0v35h123v1296h-123v35h480q78 0 163.5 -14.5t157.5 -55.5t119 -114.5t47 -190.5q0 -106 -42 -181t-106.5 -121t-143.5 -67.5t-155 -21.5q-41 0 -80.5 6t-80.5 35l-2 -606h131v-35h-488zM414 680q55 -41 125 -41q59 0 108 24.5t84 69.5t53.5 104.5t18.5 131.5 q0 98 -23.5 167.5t-68.5 113.5t-107.5 64.5t-138.5 20.5q-6 0 -19.5 -2t-29.5 -4z" />
<glyph unicode="q" horiz-adv-x="1218" d="M84 690q0 127 41 253t112.5 225.5t168 162t208.5 62.5q117 0 214.5 -62.5t168 -164t110.5 -228.5t40 -258q0 -117 -30 -226.5t-84 -201.5t-131 -162t-173 -106l-2 -195q0 -51 14.5 -83t39 -49t56 -23.5t66.5 -6.5q25 0 46.5 2t43.5 4v-39q-29 -2 -50 -3t-50 -1 q-27 0 -72 6.5t-93 16.5t-91 24.5t-62 32.5q-25 20 -37 54t-17 73t-6 79t-1 73v35q-98 33 -178 103.5t-136.5 164.5t-86 206.5t-29.5 231.5zM319 686q0 -59 4.5 -133t15.5 -148.5t32.5 -146.5t55.5 -127t83 -89t117 -34q61 0 105 36t75 94.5t48 132t26.5 149.5t12.5 145.5 t3 120.5q0 53 -4 124t-15.5 145.5t-30 147.5t-49 130t-74.5 92t-103 35q-68 0 -116 -34t-82 -88t-54.5 -126t-31.5 -146.5t-14.5 -147.5t-3.5 -132z" />
<glyph unicode="r" horiz-adv-x="1193" d="M55 0v35h113v1296h-113v35h592q68 0 133.5 -16.5t115.5 -54.5t82 -100t32 -157q0 -72 -21.5 -125t-58.5 -91t-86 -62.5t-105 -36.5v-23q86 -23 134.5 -72.5t73 -113t30.5 -134.5t8 -134q2 -45 5 -85t11.5 -70t24.5 -47t45 -17q18 0 34.5 5t33.5 11q2 0 4 2l12 -31 q-35 -16 -68.5 -22t-68.5 -6q-90 0 -141.5 26.5t-79 73.5t-36.5 112.5t-16 145.5q-2 25 -4 51.5t-6 55.5q-10 88 -41.5 137t-78 72.5t-103.5 28.5t-119 5v-659h125v-35h-463zM393 727h66q57 0 113.5 16.5t99.5 52t69.5 92t26.5 138.5q0 92 -24.5 151.5t-67.5 93.5t-100.5 47 t-122.5 13h-60v-604z" />
<glyph unicode="s" horiz-adv-x="962" d="M94 958q0 18 1 41t5 45q23 166 113 247t244 89h11q79 0 132 -26q57 -28 94 -56q34 -28 56 -28h2q29 0 35 27.5t6 52.5h32v-412h-34q-14 90 -39 165t-65 127t-97.5 80.5t-136.5 28.5q-53 0 -102.5 -14t-85.5 -44q-35 -30 -55 -77q-16 -37 -16 -86q0 -13 1 -26 q4 -55 28.5 -95.5t63.5 -70t88 -52t102 -43.5q68 -27 136.5 -60.5t127 -83.5t98.5 -121.5t50 -174.5q1 -12 1 -24q0 -80 -24 -147q-28 -77 -78.5 -132t-121 -85t-152.5 -30q-80 0 -141.5 23.5t-106.5 46.5q-25 14 -46 23.5t-42 9.5q-23 0 -32 -33t-11 -57h-31v501h31 q8 -104 33 -189t71 -146.5t115.5 -95t165.5 -33.5q59 0 107.5 18t80.5 52q30 34 42 81q5 21 6 44q0 28 -8 58q-16 59 -79 96.5t-147 76.5q-72 33 -146.5 71.5t-138 97t-103.5 140.5t-40 200z" />
<glyph unicode="t" horiz-adv-x="1077" d="M27 954q4 106 5 207t5 205h1014q2 -104 3 -204.5t3 -207.5h-33q0 125 -16.5 200t-56.5 115t-108.5 51t-176.5 11v-1296h139v-35h-526v35h145v1296h-29q-98 0 -161.5 -15.5t-101.5 -57t-53.5 -114.5t-15.5 -190h-36z" />
<glyph unicode="u" horiz-adv-x="1275" d="M37 1331v35h518v-35h-131v-882q0 -94 11 -173t43 -136.5t87.5 -90.5t141.5 -33q94 0 160.5 34t106.5 96.5t58.5 151.5t18.5 198v667q0 66 -7.5 100.5t-23.5 51t-43 18.5q-14 1 -30.5 1t-35.5 -1q-10 0 -21 -1t-26 -1v35h398v-35h-33q-41 0 -66.5 -2t-41 -17.5t-20.5 -50 t-5 -98.5v-698q0 -266 -107.5 -380t-322.5 -114q-68 0 -149 10.5t-153.5 42t-127 89t-66.5 151.5q-4 23 -4 57.5v75.5v934h-129z" />
<glyph unicode="v" horiz-adv-x="1071" d="M-25 1331v35h504v-35h-131l285 -942q66 195 110.5 332t75.5 231.5t48.5 150.5t25.5 89t10 48t2 26q0 27 -15.5 40t-39 19t-49 6h-43.5h-6v35h376v-35h-16q-49 0 -75.5 -3t-43 -18.5t-29 -48t-30.5 -90.5l-402 -1224l-448 1384h-109z" />
<glyph unicode="w" horiz-adv-x="1505" d="M-27 1331v35h1147v-35q-63 0 -101 -10t-60.5 -33.5t-37 -62.5t-28.5 -97l-33 -122l187 -662q14 41 33.5 98.5t33.5 100.5q20 61 45 136t50.5 150.5t48 148.5t41 133t28.5 102t10 57q0 25 -15 38t-36.5 18t-43 5h-36.5h-2v35h365v-35q-61 0 -94 -3t-52.5 -18.5t-33 -49 t-33.5 -93.5l-10 -30l-381 -1184h-33l-193 672l-190 -672q-12 0 -25.5 -1t-23.5 -1l-424 1380h-103zM305 1331l303 -1009l107 358l-201 651h-209zM764 1331l78 -274q2 4 11 36.5t20.5 71.5t20.5 74t9 43q0 18 -9 27.5t-22.5 14.5t-27 6t-21.5 1h-59z" />
<glyph unicode="x" horiz-adv-x="1142" d="M-31 0v35h21q14 -1 28 -1q29 0 62 3q49 4 88 37q14 12 34.5 41.5t56.5 92t91.5 167t138.5 266.5l-327 690h-109v35h496v-35h-125l221 -457q72 129 113 205t62.5 118t27.5 60.5t6 30.5q0 31 -20.5 37t-36.5 6h-95v35h394v-35h-11q-35 0 -76.5 -5t-70.5 -30 q-12 -12 -28.5 -32.5t-45 -68.5t-76 -134t-122.5 -227l389 -799h131v-35h-535v35h137l-278 565l-164 -313q-31 -57 -49 -93t-29.5 -59.5t-15.5 -35t-4 -19.5q0 -18 10 -27.5t24.5 -13.5t28 -4h19.5h82v-35h-443z" />
<glyph unicode="y" horiz-adv-x="989" d="M-47 1331v35h489v-35h-129l273 -708l198 485q6 12 14.5 35.5t16.5 49.5t14.5 49.5t6.5 37.5q0 35 -32 44t-69 9q-14 0 -26.5 -1t-22.5 -1h-4v35h362v-33h-43q-29 0 -47 -5t-33.5 -20.5t-28.5 -44t-32 -73.5l-256 -645v-510h131v-35h-481v35h129v463l-322 833h-108z" />
<glyph unicode="z" horiz-adv-x="1062" d="M66 0l657 1325h-88q-139 0 -230.5 -11t-138.5 -38v2q-100 -51 -100 -211v-80h-33v379h883l-674 -1331h150q133 0 226 14t152.5 47t87 84t27.5 123v92h35v-395h-954z" />
<glyph unicode="&#x2000;" horiz-adv-x="700" />
<glyph unicode="&#x2001;" horiz-adv-x="1401" />
<glyph unicode="&#x2002;" horiz-adv-x="700" />
<glyph unicode="&#x2003;" horiz-adv-x="1401" />
<glyph unicode="&#x2004;" horiz-adv-x="467" />
<glyph unicode="&#x2005;" horiz-adv-x="350" />
<glyph unicode="&#x2006;" horiz-adv-x="233" />
<glyph unicode="&#x2007;" horiz-adv-x="233" />
<glyph unicode="&#x2008;" horiz-adv-x="175" />
<glyph unicode="&#x2009;" horiz-adv-x="280" />
<glyph unicode="&#x200a;" horiz-adv-x="77" />
<glyph unicode="&#x202f;" horiz-adv-x="280" />
<glyph unicode="&#x205f;" horiz-adv-x="350" />
<glyph unicode="&#x25fc;" horiz-adv-x="1361" d="M0 0v1362h1362v-1362h-1362z" />
</font>
</defs>
</svg>
