<?xml version="1.0" standalone="no"?>
<!DOCTYPE svg PUBLIC "-//W3C//DTD SVG 1.1//EN" "http://www.w3.org/Graphics/SVG/1.1/DTD/svg11.dtd" >
<svg xmlns="http://www.w3.org/2000/svg" xmlns:xlink="http://www.w3.org/1999/xlink" version="1.1">
<metadata></metadata>
<defs>
<font id="made_tommythin" horiz-adv-x="1271" >
<font-face units-per-em="2048" ascent="1638" descent="-410" />
<missing-glyph horiz-adv-x="532" />
<glyph horiz-adv-x="0" />
<glyph horiz-adv-x="682" />
<glyph unicode=" "  horiz-adv-x="532" />
<glyph unicode="&#x09;" horiz-adv-x="532" />
<glyph unicode="&#xa0;" horiz-adv-x="532" />
<glyph unicode="!" horiz-adv-x="501" d="M184 41q0 28 19 46.5t47 18.5t47.5 -18.5t19.5 -46.5t-19.5 -48t-47.5 -20t-47 20t-19 48zM213 371v1063h74v-1063h-74z" />
<glyph unicode="&#x22;" horiz-adv-x="702" d="M164 977v457h74v-457h-74zM465 977v457h74v-457h-74z" />
<glyph unicode="#" horiz-adv-x="1329" d="M102 487l9 54h274l59 354h-278l8 53h279l65 393h55l-65 -393h389l64 393h57l-66 -393h275l-8 -53h-275l-57 -354h276l-8 -54h-278l-66 -397h-55l65 397h-389l-63 -397h-58l66 397h-275zM442 541h387l60 354h-389z" />
<glyph unicode="$" horiz-adv-x="1116" d="M102 287l70 22q27 -105 126.5 -183.5t260.5 -78.5q167 0 270 89.5t103 234.5q0 50 -10.5 90t-33 68.5t-47.5 49t-64.5 37.5t-73 28t-82.5 26q-27 8 -41 12q-166 50 -235 87q-165 90 -183 261q-2 22 -2 45q0 157 110 266t265 117v201h71v-203q124 -12 212 -80.5 t126 -185.5l-72 -16q-33 103 -116.5 157.5t-202.5 54.5q-130 0 -225 -90t-95 -221q0 -62 21 -110t46.5 -77t82 -56.5t92.5 -40t112 -35.5q4 -1 7 -2l6 -2q150 -45 198 -66q146 -65 189 -184q21 -58 21 -131q0 -67 -24 -132t-70.5 -122.5t-126 -96t-181.5 -45.5v-202h-71v202 q-171 7 -284.5 97.5t-148.5 214.5z" />
<glyph unicode="%" horiz-adv-x="1773" d="M123 1081q0 126 90 217t217 91q126 0 216.5 -91t90.5 -217q0 -127 -90.5 -217t-216.5 -90q-128 0 -217.5 90t-89.5 217zM195 1081q0 -97 69 -166t166 -69t165.5 69t68.5 166t-68.5 165.5t-165.5 68.5t-166 -68.5t-69 -165.5zM371 0l946 1434h86l-946 -1434h-86zM1036 352 q0 128 90 217.5t217 89.5q128 0 218 -90t90 -217t-90 -217t-218 -90q-127 0 -217 89.5t-90 217.5zM1110 352q0 -97 68 -166t165 -69t166.5 69t69.5 166t-69.5 165.5t-166.5 68.5t-165 -68.5t-68 -165.5z" />
<glyph unicode="&#x26;" horiz-adv-x="1431" d="M82 381q0 75 23.5 140t58 109t85.5 82.5t94.5 61t96.5 43.5q-114 162 -114 309q0 142 92.5 237t240.5 95q126 0 214 -83.5t88 -203.5q0 -47 -12.5 -88.5t-31.5 -73t-52.5 -61.5t-63.5 -50.5t-76.5 -43t-81 -36.5t-86.5 -34q74 -88 182 -188q112 -107 273 -250 q70 139 86 264l73 -10q-25 -156 -104 -303q206 -182 344 -297h-113q-149 126 -270 233q-34 -48 -75.5 -90t-101.5 -82.5t-140.5 -64t-171.5 -23.5q-104 0 -192 35t-145 93t-88.5 130.5t-31.5 149.5zM160 381q0 -65 25.5 -125t72.5 -106.5t120 -74.5t161 -28q82 0 154 21.5 t125 58t90.5 75t64.5 81.5q-152 135 -285 260q-137 130 -203 213q-168 -66 -246.5 -154.5t-78.5 -220.5zM397 1126q0 -124 113 -282q56 21 83 32t74.5 32.5t72 37.5t57.5 42t48.5 51t27.5 59.5t12 72.5q0 84 -62 149.5t-164 65.5q-119 0 -190.5 -73.5t-71.5 -186.5z" />
<glyph unicode="'" horiz-adv-x="399" d="M164 977v457h72v-457h-72z" />
<glyph unicode="(" horiz-adv-x="681" d="M184 717q0 119 18.5 232.5t43.5 196.5t68 174.5t74.5 146t80.5 132.5l49 -38q-55 -87 -93 -160.5t-81 -181t-65.5 -234.5t-22.5 -268t22.5 -269t65.5 -235.5t81 -181t93 -160.5l-49 -37q-48 76 -80 131t-75 146.5t-68 175t-43.5 197t-18.5 233.5z" />
<glyph unicode=")" horiz-adv-x="681" d="M164 -129q55 87 93 160.5t81 181t65.5 235.5t22.5 269t-22.5 268t-65.5 234.5t-81 181t-93 160.5l51 38q49 -79 79.5 -132t74 -146t68 -175.5t43 -196t18.5 -232.5q0 -120 -18.5 -233.5t-43.5 -197t-68 -175.5t-74 -146t-79 -131z" />
<glyph unicode="*" horiz-adv-x="925" d="M102 1145l23 69l319 -120l-18 340h74l-17 -340l318 120l22 -69l-327 -88l213 -266l-60 -43l-186 284l-187 -284l-59 43l215 266z" />
<glyph unicode="+" horiz-adv-x="1171" d="M184 573v72h365v367h72v-367h366v-72h-366v-364h-72v364h-365z" />
<glyph unicode="," horiz-adv-x="385" d="M41 -209l166 346l76 -45l-209 -319z" />
<glyph unicode="-" horiz-adv-x="1026" d="M184 573v72h658v-72h-658z" />
<glyph unicode="." horiz-adv-x="337" d="M102 41q0 27 19.5 46t46.5 19q28 0 48 -19t20 -46q0 -28 -20 -48t-48 -20q-26 0 -46 20t-20 48z" />
<glyph unicode="/" horiz-adv-x="913" d="M123 -199l592 1829h76l-592 -1829h-76z" />
<glyph unicode="0" horiz-adv-x="1226" d="M102 717q0 114 17.5 219t57.5 201t98 166.5t145 112.5t194 42t194 -42t144.5 -112.5t97 -166.5t57 -201t17.5 -219q0 -115 -17.5 -220t-57 -201.5t-97 -167.5t-144.5 -113t-194 -42t-194 42t-145 113t-98 167t-57.5 201.5t-17.5 220.5zM174 717q0 -124 25 -238.5 t75.5 -213.5t138 -158.5t201.5 -59.5q91 0 166 39.5t125 105.5t84 153.5t49 180.5t15 191q0 124 -25 238.5t-75.5 213t-138 158t-200.5 59.5q-114 0 -201.5 -59.5t-138 -158t-75.5 -213t-25 -238.5z" />
<glyph unicode="1" horiz-adv-x="952" d="M184 1147l426 287h56v-1434h-72v1333l-371 -248z" />
<glyph unicode="2" horiz-adv-x="1101" d="M123 0v72q34 34 239 268.5t226 261.5q135 163 191.5 260t56.5 205q0 135 -89 227t-210 92q-128 0 -220 -75.5t-118 -208.5l-72 12q30 161 142 252.5t268 91.5q161 0 266.5 -117t105.5 -274q0 -54 -13.5 -106.5t-32 -95t-58 -100t-71 -97.5t-91.5 -113q-1 -2 -59.5 -69 t-121 -140t-134 -154.5t-105.5 -119.5h735v-72h-835z" />
<glyph unicode="3" horiz-adv-x="1142" d="M102 297l72 14q21 -103 133.5 -183.5t278.5 -80.5q75 0 143 24t121.5 67.5t85 112t31.5 150.5q0 80 -30 141t-72.5 93.5t-100 53t-101.5 26.5t-88 6h-108v61h113q40 0 81 8t85 29t77.5 53t55.5 85t22 120q0 135 -92 222t-223 87q-130 0 -223 -73.5t-121 -175.5l-72 14 q34 136 148 221.5t268 85.5q167 0 278 -109.5t111 -271.5q0 -121 -67.5 -204.5t-184.5 -116.5q142 -30 229.5 -118t87.5 -237q0 -102 -38.5 -185t-103 -135t-145 -80t-167.5 -28q-186 0 -321.5 94t-162.5 230z" />
<glyph unicode="4" horiz-adv-x="1234" d="M123 356v74l678 1004h104v-1004h207v-74h-207v-356h-71v356h-711zM211 430h623v922z" />
<glyph unicode="5" horiz-adv-x="1116" d="M102 297l72 14q21 -103 124.5 -183.5t254.5 -80.5q76 0 146 29t123.5 80.5t85.5 129.5t32 171q0 170 -107 274.5t-253 104.5q-116 0 -210 -57t-141 -130l-73 19l90 766h692v-74h-633l-72 -615q63 71 152.5 116.5t194.5 45.5q82 0 158.5 -29t138.5 -83.5t99.5 -142.5 t37.5 -195q0 -92 -26.5 -171t-71 -135.5t-104 -97.5t-125.5 -60.5t-134 -19.5q-171 0 -297.5 94.5t-153.5 229.5z" />
<glyph unicode="6" horiz-adv-x="1161" d="M102 453q0 85 33 163t92 168l437 650h77l-379 -562q91 58 218 58q200 0 339.5 -139t139.5 -338q0 -131 -64 -241.5t-174 -174.5t-241 -64q-199 0 -338.5 140t-139.5 340zM174 453q0 -169 117.5 -287.5t288.5 -118.5t288 118t117 288q0 167 -119.5 286t-285.5 119 t-286 -119t-120 -286z" />
<glyph unicode="7" horiz-adv-x="1046" d="M113 1360v74h821v-56l-569 -1378h-78l561 1360h-735z" />
<glyph unicode="8" horiz-adv-x="1171" d="M102 389q0 143 89.5 243t236.5 136q-113 38 -182.5 124t-69.5 200q0 160 116 263t294 103t293.5 -102.5t115.5 -263.5q0 -114 -69.5 -200t-182.5 -124q147 -36 236.5 -136t89.5 -243q0 -183 -135.5 -299.5t-347.5 -116.5t-348 116.5t-136 299.5zM176 389 q0 -153 113.5 -247.5t296.5 -94.5t296 94t113 248q0 151 -118 247.5t-291 96.5t-291.5 -96.5t-118.5 -247.5zM248 1092q0 -127 98.5 -210t239.5 -83t239.5 83t98.5 210q0 132 -95.5 213t-242.5 81t-242.5 -81t-95.5 -213z" />
<glyph unicode="9" horiz-adv-x="1161" d="M102 981q0 199 139 338t339 139t339.5 -139t139.5 -338q0 -87 -33.5 -166.5t-93.5 -167.5l-436 -647h-78l381 559q-97 -57 -219 -57q-131 0 -241 63.5t-173.5 173.5t-63.5 242zM174 981q0 -168 120 -287t286 -119t285.5 119.5t119.5 286.5q0 170 -116.5 287.5 t-288.5 117.5q-171 0 -288.5 -118t-117.5 -287z" />
<glyph unicode=":" horiz-adv-x="460" d="M164 41q0 28 19.5 46.5t47.5 18.5q27 0 46.5 -19t19.5 -46q0 -28 -20 -48t-46 -20q-28 0 -47.5 20t-19.5 48zM164 997q0 27 20 46.5t47 19.5q26 0 46 -20t20 -46q0 -27 -19.5 -47t-46.5 -20q-28 0 -47.5 19.5t-19.5 47.5z" />
<glyph unicode=";" horiz-adv-x="512" d="M82 -209l164 346l76 -45l-209 -319zM215 997q0 27 19.5 46.5t46.5 19.5t47 -19.5t20 -46.5q0 -28 -19.5 -47.5t-47.5 -19.5t-47 19.5t-19 47.5z" />
<glyph unicode="&#x3c;" horiz-adv-x="1097" d="M184 524v80l729 344v-80l-645 -305l645 -305v-80z" />
<glyph unicode="=" horiz-adv-x="1134" d="M184 410v71h766v-71h-766zM184 737v74h766v-74h-766z" />
<glyph unicode="&#x3e;" horiz-adv-x="1097" d="M184 178v80l645 305l-645 305v80l729 -344v-80z" />
<glyph unicode="?" horiz-adv-x="864" d="M61 1149q14 57 43 109.5t74 98.5t112 73.5t146 27.5q151 0 259 -105.5t108 -254.5q0 -74 -25 -141t-53.5 -106t-75.5 -91q-42 -46 -65 -75t-52.5 -78.5t-43 -107.5t-13.5 -128h-72q0 65 12.5 123.5t28 98t45.5 84.5t49.5 68.5t55.5 63.5q67 72 101 136t34 153 q0 119 -86 203.5t-207 84.5q-123 0 -200.5 -75.5t-104.5 -180.5zM373 41q0 28 19.5 46.5t47.5 18.5t47 -18.5t19 -46.5t-19 -48t-47 -20t-47.5 20t-19.5 48z" />
<glyph unicode="@" horiz-adv-x="1888" d="M123 682q0 84 21 172.5t62.5 179.5t110 171.5t157 143.5t211.5 99.5t265 36.5q166 0 305 -45.5t231 -119t156.5 -170t93.5 -196.5t29 -200q0 -211 -85.5 -343t-223.5 -132q-188 0 -203 243q-43 -107 -136.5 -170t-213.5 -63q-163 0 -271 114.5t-108 280.5 q0 164 116.5 279.5t281.5 115.5q116 0 203 -62.5t128 -166.5v219h64v-516q0 -49 5.5 -84.5t19.5 -68t43 -49.5t73 -17q109 0 180.5 115t71.5 305q0 90 -26 181.5t-85.5 181.5t-145.5 159.5t-216.5 112.5t-286.5 43q-133 0 -248 -34.5t-197.5 -93.5t-146.5 -134.5 t-102.5 -160.5t-58 -167.5t-19.5 -159.5q0 -105 28 -209t89 -201t147 -171.5t211 -119t273 -44.5q263 0 446 149l35 -45q-196 -158 -481 -158q-153 0 -285 44.5t-225.5 121.5t-160.5 179t-99.5 217.5t-32.5 236.5zM598 684q0 -133 87.5 -228.5t236.5 -95.5q93 0 168.5 48.5 t115 122t39.5 153.5q0 129 -95 226.5t-228 97.5q-138 0 -231 -97t-93 -227z" />
<glyph unicode="A" d="M61 0l535 1434h80l534 -1434h-82l-161 438h-662l-164 -438h-80zM332 512h606l-303 813z" />
<glyph unicode="B" horiz-adv-x="1187" d="M184 0v1434h422q195 0 310.5 -100t115.5 -263q0 -110 -59.5 -194t-165.5 -125v-4q137 -35 218 -125t81 -224q0 -128 -63 -219.5t-167.5 -135.5t-238.5 -44h-453zM258 72h379q115 0 202 34t140 109t53 184q0 79 -32.5 140.5t-88 98.5t-125 56t-149.5 19h-379v-641z M258 778h348q156 0 255.5 78.5t99.5 214.5q0 133 -99 211t-256 78h-348v-582z" />
<glyph unicode="C" horiz-adv-x="1452" d="M102 717q0 204 92 374t254.5 268.5t360.5 98.5q168 0 313.5 -71.5t247.5 -198.5l-61 -41q-91 112 -221.5 175.5t-278.5 63.5q-178 0 -323.5 -89t-227.5 -242.5t-82 -337.5t82 -337.5t227.5 -243t323.5 -89.5q148 0 278.5 63.5t221.5 174.5l61 -39q-102 -127 -248 -200 t-313 -73q-148 0 -280 58.5t-225 158t-147.5 237t-54.5 290.5z" />
<glyph unicode="D" horiz-adv-x="1404" d="M184 0v1434h412q121 0 230.5 -35t195.5 -99.5t149.5 -152.5t97.5 -198.5t34 -231.5t-34 -231.5t-97.5 -198.5t-149.5 -152.5t-195.5 -99.5t-230.5 -35h-412zM258 72h338q182 0 327.5 86.5t225.5 233.5t80 325t-80 324.5t-225.5 232.5t-327.5 86h-338v-1288z" />
<glyph unicode="E" horiz-adv-x="1079" d="M184 0v1434h754v-74h-682v-582h635v-73h-635v-633h700v-72h-772z" />
<glyph unicode="F" horiz-adv-x="1091" d="M184 0v1434h785v-74h-711v-600h651v-72h-651v-688h-74z" />
<glyph unicode="G" horiz-adv-x="1572" d="M102 717q0 204 92 374t254.5 268.5t360.5 98.5q169 0 315 -71.5t246 -198.5l-61 -41q-91 112 -220.5 175.5t-279.5 63.5q-178 0 -323.5 -89t-227.5 -242.5t-82 -337.5t82 -337.5t227.5 -243t323.5 -89.5q263 0 417 167.5t160 442.5v27h-548v72h622v-756h-55l-14 365 q-69 -184 -218.5 -288t-363.5 -104q-148 0 -280 58.5t-225 158t-147.5 237t-54.5 290.5z" />
<glyph unicode="H" horiz-adv-x="1384" d="M184 0v1434h72v-674h872v674h72v-1434h-72v686h-872v-686h-72z" />
<glyph unicode="I" horiz-adv-x="440" d="M184 0v1434h72v-1434h-72z" />
<glyph unicode="J" horiz-adv-x="1142" d="M82 346l72 12q27 -144 124 -227.5t254 -83.5q167 0 260 107.5t93 308.5v971h73v-971q0 -232 -113.5 -361t-312.5 -129q-175 0 -296.5 98t-153.5 275z" />
<glyph unicode="K" horiz-adv-x="1146" d="M184 0v1434h74v-709l676 709h92l-676 -709l735 -725h-98l-729 721v-721h-74z" />
<glyph unicode="L" horiz-adv-x="1044" d="M184 0v1434h74v-1362h684v-72h-758z" />
<glyph unicode="M" horiz-adv-x="1765" d="M184 0v1434h74l625 -922l626 922h72v-1434h-72v1296l-610 -895h-33l-608 895v-1296h-74z" />
<glyph unicode="N" horiz-adv-x="1423" d="M184 0v1434h74l907 -1307v1307h74v-1434h-74l-907 1305v-1305h-74z" />
<glyph unicode="O" horiz-adv-x="1617" d="M102 717q0 204 92 374t254.5 268.5t360.5 98.5t360.5 -98.5t254.5 -268.5t92 -374q0 -153 -54.5 -290.5t-147.5 -237t-225 -158t-280 -58.5t-280 58.5t-225 158t-147.5 237t-54.5 290.5zM176 717q0 -184 82 -337.5t227.5 -243t323.5 -89.5t323.5 89.5t227.5 243t82 337.5 t-82 337.5t-227.5 242.5t-323.5 89t-323.5 -89t-227.5 -242.5t-82 -337.5z" />
<glyph unicode="P" horiz-adv-x="1150" d="M184 0v1434h394q228 0 359.5 -122.5t131.5 -314.5q0 -191 -131.5 -312.5t-359.5 -121.5h-320v-563h-74zM258 637h320q192 0 304.5 98.5t112.5 261.5q0 164 -112.5 263.5t-304.5 99.5h-320v-723z" />
<glyph unicode="Q" horiz-adv-x="1617" d="M102 713q0 204 92 374t254.5 268.5t360.5 98.5t360.5 -98.5t254.5 -268.5t92 -374q0 -157 -55.5 -295.5t-155.5 -241.5l151 -153l-51 -52l-156 156q-192 -158 -440 -158q-148 0 -280 58.5t-225 158t-147.5 237t-54.5 290.5zM176 713q0 -184 82 -337.5t227.5 -243 t323.5 -89.5q222 0 389 135l-270 275l51 51l274 -277q90 94 139.5 219t49.5 267q0 184 -82 337t-227.5 241.5t-323.5 88.5t-323.5 -88.5t-227.5 -241.5t-82 -337z" />
<glyph unicode="R" horiz-adv-x="1193" d="M184 0v1434h373q232 0 363 -110t131 -298q0 -148 -82 -249t-232 -138l396 -639h-89l-387 625q-58 -7 -100 -7h-299v-618h-74zM258 690h299q208 0 314 91.5t106 244.5q0 151 -106.5 242.5t-313.5 91.5h-299v-670z" />
<glyph unicode="S" horiz-adv-x="1118" d="M106 287l70 22q27 -105 126.5 -183.5t260.5 -78.5q166 0 268.5 89.5t102.5 234.5q0 60 -17 105.5t-42 74t-69.5 52t-82.5 36.5t-98 31q-27 8 -41 12q-166 50 -235 87q-165 90 -183 261q-2 22 -2 45q0 162 116 272.5t277 110.5q144 0 246 -69.5t143 -198.5l-72 -16 q-33 103 -116 157.5t-201 54.5q-130 0 -224.5 -90t-94.5 -221q0 -76 24 -129.5t86 -90.5t104 -53t140 -46q8 -3 12 -4q11 -3 33 -10q40 -12 60.5 -18.5t58 -20t58.5 -24t52 -28.5t48.5 -36t38 -44t31.5 -54.5t18.5 -66t7.5 -79.5q0 -56 -16 -111t-51 -107.5t-86 -92 t-127 -63.5t-167 -24q-180 0 -301 92t-156 222z" />
<glyph unicode="T" horiz-adv-x="1103" d="M123 1360v74h858v-74h-393v-1360h-72v1360h-393z" />
<glyph unicode="U" horiz-adv-x="1384" d="M184 516v918h74v-918q0 -214 117.5 -341.5t316.5 -127.5t316.5 127.5t117.5 341.5v918h74v-918q0 -248 -140 -395.5t-368 -147.5q-229 0 -368.5 147t-139.5 396z" />
<glyph unicode="V" d="M61 1434h80l496 -1328l493 1328h80l-534 -1434h-80z" />
<glyph unicode="W" horiz-adv-x="1988" d="M61 1434h80l437 -1307l376 1307h80l379 -1307l436 1307h78l-477 -1434h-80l-375 1296l-377 -1296h-77z" />
<glyph unicode="X" horiz-adv-x="1204" d="M61 0l496 743l-459 691h95l409 -619l412 619h94l-459 -691l494 -743h-92l-449 674l-446 -674h-95z" />
<glyph unicode="Y" horiz-adv-x="1325" d="M61 1434h93l510 -844l510 844h90l-564 -918v-516h-73v516z" />
<glyph unicode="Z" horiz-adv-x="1183" d="M123 0v72l833 1288h-798v74h884v-74l-833 -1288h852v-72h-938z" />
<glyph unicode="[" horiz-adv-x="649" d="M184 -199v1829h301v-71h-227v-1684h227v-74h-301z" />
<glyph unicode="\" horiz-adv-x="915" d="M123 1630h78l592 -1829h-78z" />
<glyph unicode="]" horiz-adv-x="649" d="M164 -125h229v1684h-229v71h301v-1829h-301v74z" />
<glyph unicode="^" horiz-adv-x="1028" d="M123 821l350 613h84l348 -613h-84l-307 539l-307 -539h-84z" />
<glyph unicode="_" horiz-adv-x="870" d="M61 -227h748v-72h-748v72z" />
<glyph unicode="`" horiz-adv-x="585" d="M184 1479h92l125 -269h-49z" />
<glyph unicode="a" horiz-adv-x="1071" d="M82 274q0 66 22.5 117.5t54 85t90.5 56.5t104.5 34.5t126.5 17.5t125.5 6.5t129.5 0.5h21h69v57q0 73 -17.5 133.5t-53.5 108t-96 74t-140 26.5q-52 0 -99 -11t-86.5 -32.5t-64 -38t-55.5 -41.5l-61 45q78 66 164.5 108t201.5 42q178 0 278.5 -105t100.5 -309v-649h-72 v182q-58 -88 -158 -148.5t-239 -60.5q-151 0 -248.5 86t-97.5 215zM160 274q0 -97 77 -162t191 -65q89 0 166 29t124 72t74.5 85t32.5 76v209q-25 2 -71 2h-51q-25 1 -51 1q-20 -1 -40 -1q-47 -2 -93.5 -3t-91 -8.5t-84.5 -17.5t-73.5 -29t-58 -44t-38 -61.5t-13.5 -82.5z " />
<glyph unicode="b" horiz-adv-x="1292" d="M174 0v1434h72v-660q62 132 178.5 210.5t267.5 78.5q145 0 264.5 -73.5t186.5 -198.5t67 -273q0 -147 -67 -272t-186.5 -199t-264.5 -74q-151 0 -267.5 78.5t-178.5 210.5v-262h-72zM246 518q0 -196 127.5 -333.5t318.5 -137.5t318 137.5t127 333.5t-127 333.5 t-318 137.5t-318.5 -137.5t-127.5 -333.5z" />
<glyph unicode="c" horiz-adv-x="1124" d="M82 518q0 148 70.5 273t193.5 198.5t270 73.5q138 0 255.5 -66.5t191.5 -179.5l-66 -35q-63 96 -163 151.5t-218 55.5q-192 0 -326 -138t-134 -333t134 -333t326 -138q117 0 217.5 56.5t163.5 152.5l66 -35q-73 -115 -190.5 -181.5t-256.5 -66.5q-147 0 -270 74 t-193.5 199t-70.5 272z" />
<glyph unicode="d" horiz-adv-x="1292" d="M82 518q0 148 66.5 273t186 198.5t265.5 73.5q150 0 266 -78.5t178 -210.5v660h74v-1434h-74v262q-62 -132 -178 -210.5t-266 -78.5q-146 0 -265.5 74t-186 199t-66.5 272zM154 518q0 -196 127.5 -333.5t318.5 -137.5q125 0 227.5 63.5t159.5 171.5t57 236t-57 236 t-159.5 171.5t-227.5 63.5q-191 0 -318.5 -137.5t-127.5 -333.5z" />
<glyph unicode="e" horiz-adv-x="1159" d="M82 518q0 147 63 271t179.5 199t263.5 75q144 0 258 -75q114 -74 176 -208q54 -116 54 -257q0 -21 -1 -42h-919q14 -182 142.5 -308t311.5 -126q218 0 359 168l65 -43q-160 -199 -424 -199q-152 0 -273.5 74t-188 198t-66.5 273zM156 555h843q-9 186 -125 310t-286 124 q-178 0 -299 -125.5t-133 -308.5z" />
<glyph unicode="f" horiz-adv-x="669" d="M72 965v73h186v35q0 56 8.5 106t32 102t61 89t101.5 60.5t147 23.5v-74q-140 0 -209 -70t-69 -237v-35h278v-73h-278v-965h-72v965h-186z" />
<glyph unicode="g" horiz-adv-x="1292" d="M82 547q0 144 68 262.5t187 186t263 67.5q150 0 266.5 -73.5t177.5 -198.5v247h74v-929q0 -101 -34 -193.5t-96.5 -166.5t-162 -118.5t-221.5 -44.5q-289 0 -448 191l61 39q138 -156 387 -156q88 0 162.5 26.5t124.5 70.5t85.5 102t51.5 121.5t16 128.5v192 q-61 -125 -177.5 -198.5t-266.5 -73.5q-220 0 -369 148.5t-149 369.5zM154 547q0 -190 127.5 -317.5t318.5 -127.5q189 0 316.5 127.5t127.5 317.5q0 189 -127.5 315.5t-316.5 126.5q-191 0 -318.5 -126.5t-127.5 -315.5z" />
<glyph unicode="h" horiz-adv-x="1181" d="M174 0v1434h74v-598q53 102 144.5 164.5t215.5 62.5q77 0 144 -26.5t113 -70t79 -100t48.5 -116.5t15.5 -119v-631h-74v631q0 64 -20 125.5t-58.5 114.5t-103 85.5t-144.5 32.5q-110 0 -194.5 -59t-125 -143.5t-40.5 -174.5v-612h-74z" />
<glyph unicode="i" horiz-adv-x="421" d="M152 1329q0 25 17 41t42 16t42 -16t17 -41t-17 -42t-42 -17t-42 17t-17 42zM174 0v1038h74v-1038h-74z" />
<glyph unicode="j" horiz-adv-x="421" d="M-82 -305q79 0 131 17.5t79 55t37.5 83t10.5 112.5v1075h72v-1075q0 -179 -79 -260.5t-251 -81.5v74zM154 1329q0 24 16.5 40.5t40.5 16.5q25 0 42 -16t17 -41t-17 -42t-42 -17q-23 0 -40 17t-17 42z" />
<glyph unicode="k" horiz-adv-x="983" d="M174 0v1434h72v-893l506 497h106l-512 -503l576 -535h-107l-569 528v-528h-72z" />
<glyph unicode="l" horiz-adv-x="419" d="M174 0v1434h72v-1434h-72z" />
<glyph unicode="m" horiz-adv-x="1734" d="M174 0v1038h72v-180q44 93 122 149t183 56q123 0 206 -62.5t120 -166.5q43 102 128 165.5t203 63.5q88 0 157 -33t111 -89t63.5 -125.5t21.5 -147.5v-668h-72v668q0 81 -29.5 152t-95.5 120t-156 49q-61 0 -112.5 -21.5t-86.5 -57t-59.5 -80.5t-35.5 -91t-11 -90v-649 h-72v668q0 59 -17.5 115t-51 103t-88.5 75t-123 28q-76 0 -137 -32.5t-96 -84.5t-53.5 -109.5t-18.5 -113.5v-649h-72z" />
<glyph unicode="n" horiz-adv-x="1181" d="M174 0v1038h74v-202q50 102 143 164.5t217 62.5q77 0 144 -26.5t113 -70t79 -100t48.5 -116.5t15.5 -119v-631h-74v631q0 64 -20 125.5t-58.5 114.5t-103 85.5t-144.5 32.5q-110 0 -194.5 -59t-125 -143.5t-40.5 -174.5v-612h-74z" />
<glyph unicode="o" horiz-adv-x="1230" d="M82 518q0 147 70.5 272.5t193 199t268.5 73.5q147 0 270 -73.5t194 -199t71 -272.5t-70.5 -272t-194 -199t-270.5 -74q-146 0 -268.5 74t-193 199t-70.5 272zM154 518q0 -195 134 -333t326 -138q127 0 233 63.5t167 172t61 235.5t-61 235.5t-167 172t-233 63.5 q-192 0 -326 -138t-134 -333z" />
<glyph unicode="p" horiz-adv-x="1292" d="M174 -395v1433h74v-264q62 132 178 210.5t266 78.5q146 0 265.5 -73.5t186 -198.5t66.5 -273q0 -147 -66.5 -272t-186 -199t-265.5 -74q-150 0 -266 78.5t-178 210.5v-657h-74zM248 518q0 -196 126.5 -333.5t317.5 -137.5t319 137.5t128 333.5t-128 333.5t-319 137.5 t-317.5 -137.5t-126.5 -333.5z" />
<glyph unicode="q" horiz-adv-x="1294" d="M82 518q0 148 67 273t186.5 198.5t264.5 73.5q151 0 268 -78.5t179 -210.5v264h73v-1433h-73v657q-62 -132 -179 -210.5t-268 -78.5q-145 0 -264.5 74t-186.5 199t-67 272zM156 518q0 -128 57 -236t159.5 -171.5t227.5 -63.5q191 0 319 137.5t128 333.5t-128 333.5 t-319 137.5q-125 0 -227.5 -63.5t-159.5 -171.5t-57 -236z" />
<glyph unicode="r" horiz-adv-x="706" d="M174 0v1038h74v-239q53 125 153 194.5t234 69.5v-90q-186 0 -286.5 -121.5t-100.5 -323.5v-528h-74z" />
<glyph unicode="s" horiz-adv-x="890" d="M92 219l72 14q17 -73 91 -129.5t185 -56.5q134 0 205.5 65.5t71.5 159.5q0 43 -13 74.5t-31.5 51.5t-57 37t-71 26.5t-91.5 23.5q-42 10 -67 17t-64 20.5t-62.5 27t-52 36t-44 48t-26 62t-10.5 80.5q0 121 89 204t218 83q112 0 192 -58t111 -161l-69 -21q-23 78 -85 122 t-149 44q-99 0 -167 -61.5t-68 -151.5q0 -42 13 -73.5t33 -52.5t57.5 -39t74 -29t94.5 -25q135 -33 188 -61q129 -69 129 -224q0 -56 -21 -108t-62 -95.5t-110 -69.5t-155 -26q-139 0 -231.5 73t-116.5 173z" />
<glyph unicode="t" horiz-adv-x="700" d="M61 965v73h199v217h72v-217h262v-73h-262v-689q0 -136 62 -180q47 -33 140 -34q30 0 64 4v-72q-38 -4 -67 -4q-3 0 -7 -1q-27 0 -59 4q-37 4 -64 14t-55 31t-46 51.5t-29 78t-11 108.5v689h-199z" />
<glyph unicode="u" horiz-adv-x="1181" d="M174 406v632h74v-632q0 -50 12 -100t38.5 -97t63.5 -83t91.5 -57.5t119.5 -21.5q83 0 153 34.5t114.5 89.5t69 121t24.5 132v614h74v-1038h-74v201q-50 -102 -143.5 -165t-217.5 -63q-96 0 -174.5 40t-126 104.5t-73 139t-25.5 149.5z" />
<glyph unicode="v" horiz-adv-x="1028" d="M41 1038h80l393 -942l393 942h80l-432 -1038h-82z" />
<glyph unicode="w" horiz-adv-x="1511" d="M41 1038h80l325 -925l277 925h65l277 -925l328 925h77l-366 -1038h-80l-268 903l-269 -903h-79z" />
<glyph unicode="x" horiz-adv-x="952" d="M51 0l377 530l-358 508h96l311 -438l309 438h99l-361 -508l377 -530h-96l-328 463l-330 -463h-96z" />
<glyph unicode="y" horiz-adv-x="1028" d="M41 1038h82l414 -884l370 884h80l-602 -1433h-80l193 458z" />
<glyph unicode="z" horiz-adv-x="919" d="M102 0v72l609 893h-590v73h678v-73l-609 -893h627v-72h-715z" />
<glyph unicode="{" horiz-adv-x="849" d="M184 684v66q91 0 130.5 45t39.5 149v383q0 162 83 232.5t249 70.5v-71q-146 0 -203 -58t-57 -192v-365q0 -182 -129 -225v-4q129 -45 129 -226v-366q0 -133 57 -190.5t203 -57.5v-74q-165 0 -248.5 71t-83.5 232v385q0 104 -39.5 149.5t-130.5 45.5z" />
<glyph unicode="|" horiz-adv-x="442" d="M184 -305v1864h74v-1864h-74z" />
<glyph unicode="}" horiz-adv-x="851" d="M164 -125q147 0 203.5 57.5t56.5 190.5v366q0 181 131 226v4q-131 42 -131 225v365q0 134 -56.5 192t-203.5 58v71q167 0 250.5 -70.5t83.5 -232.5v-383q0 -104 39.5 -149t130.5 -45v-66q-91 0 -130.5 -45.5t-39.5 -149.5v-385q0 -161 -83.5 -232t-250.5 -71v74z" />
<glyph unicode="~" horiz-adv-x="1173" d="M164 510q52 195 235 195q75 0 197 -60q124 -55 188 -55q61 0 98.5 33t57.5 104l70 -18q-53 -193 -226 -193q-37 0 -80.5 11.5t-64.5 20t-74 32.5q-108 51 -166 51q-66 0 -106 -33t-60 -106z" />
<glyph unicode="&#xa1;" horiz-adv-x="501" d="M184 997q0 27 19.5 46.5t46.5 19.5q28 0 47.5 -19.5t19.5 -46.5q0 -28 -19.5 -47.5t-47.5 -19.5t-47 19.5t-19 47.5zM215 -395v1061h72v-1061h-72z" />
<glyph unicode="&#xa2;" horiz-adv-x="1183" d="M102 717q0 211 139 366t343 174v177h73v-174q131 -4 242.5 -70t181.5 -176l-63 -35q-65 96 -165.5 152.5t-217.5 56.5q-127 0 -233 -63.5t-167 -172t-61 -235.5t61 -235.5t167 -172t233 -63.5q118 0 218.5 55.5t164.5 151.5l63 -35q-70 -108 -181.5 -174t-242.5 -72v-172 h-73v174q-204 20 -343 176.5t-139 366.5z" />
<glyph unicode="&#xa3;" horiz-adv-x="1136" d="M102 0v72q234 165 234 426q0 58 -25 145h-209v55h195q-2 8 -19.5 61.5t-22.5 72.5t-15.5 61.5t-14.5 77t-4 69.5q0 173 112.5 294.5t278.5 121.5q140 0 236.5 -78.5t122.5 -214.5l-72 -16q-20 106 -92 170.5t-195 64.5q-144 0 -230.5 -103.5t-86.5 -238.5q0 -42 8.5 -90 t18.5 -80t28.5 -88.5t26.5 -83.5h477v-55h-463q17 -80 17 -145q0 -73 -20.5 -142.5t-54.5 -123t-67 -92t-67 -66.5v-2h835v-72h-932z" />
<glyph unicode="&#xa4;" horiz-adv-x="999" d="M102 358l152 152q-76 89 -76 207t76 207l-152 151l39 39l152 -151q88 75 207 75t207 -75l151 151l39 -39l-152 -151q76 -89 76 -207t-76 -207l152 -152l-39 -39l-151 152q-89 -76 -207 -76t-207 76l-152 -152zM252 717q0 -103 72.5 -176.5t175.5 -73.5t175.5 73.5 t72.5 176.5t-72.5 175.5t-175.5 72.5t-175.5 -72.5t-72.5 -175.5z" />
<glyph unicode="&#xa5;" horiz-adv-x="1325" d="M61 1434h93l510 -844l510 844h90l-533 -867h344v-55h-375v-190h375v-56h-375v-266h-73v266h-375v56h375v190h-375v55h344z" />
<glyph unicode="&#xa6;" horiz-adv-x="442" d="M184 -305v727h74v-727h-74zM184 823v736h74v-736h-74z" />
<glyph unicode="&#xa7;" horiz-adv-x="1146" d="M164 643q0 52 18.5 100t50 84.5t62.5 62.5t67 48q-94 78 -94 203q0 99 53 173t130.5 109t164.5 35q78 0 140.5 -21t99 -50t63 -68t36.5 -64.5t16 -50.5l-72 -18q-5 23 -14 45t-30.5 51.5t-50.5 51t-78 37t-110 15.5q-111 0 -192.5 -65t-81.5 -180q0 -36 9.5 -65.5 t30.5 -53t43.5 -41t59 -34.5t66.5 -28t76 -26q58 -20 98.5 -36t93.5 -44.5t85.5 -59.5t55.5 -77.5t23 -100.5q0 -172 -197 -292q93 -79 93 -203q0 -75 -30.5 -136.5t-80.5 -100.5t-111 -60t-125 -21q-78 0 -140.5 21t-99 50t-63 66.5t-36.5 64t-15 50.5l70 19 q5 -23 14 -44.5t30.5 -51t50.5 -51t78.5 -37t110.5 -15.5q70 0 131 27t101.5 84.5t40.5 134.5q0 36 -9.5 65.5t-30.5 53t-43.5 41t-59 34.5t-66.5 28t-76 26q-57 18 -99 34.5t-93.5 45t-84.5 59.5t-56 77t-23 99zM238 643q0 -87 77.5 -142.5t229.5 -103.5q134 -47 186 -78 q30 16 57.5 36t57 51.5t47.5 75t18 93.5q0 87 -77.5 142.5t-229.5 105.5q-134 47 -188 78q-30 -15 -57 -35.5t-56.5 -52t-47 -75.5t-17.5 -95z" />
<glyph unicode="&#xa8;" horiz-adv-x="841" d="M184 1327q0 29 20.5 49.5t49.5 20.5t50.5 -20.5t21.5 -49.5t-21.5 -50.5t-50.5 -21.5t-49.5 21.5t-20.5 50.5zM516 1327q0 29 21.5 49.5t50.5 20.5t49 -20.5t20 -49.5q0 -30 -20 -51t-49 -21t-50.5 21.5t-21.5 50.5z" />
<glyph unicode="&#xa9;" horiz-adv-x="1669" d="M123 717q0 144 56.5 275.5t152 226.5t227 151.5t275.5 56.5q193 0 357 -95.5t259.5 -259t95.5 -355.5q0 -193 -95.5 -357.5t-259.5 -260t-357 -95.5q-144 0 -275.5 56.5t-227 152t-152 227.5t-56.5 277zM176 717q0 -178 88.5 -329.5t240 -240t329.5 -88.5t329.5 88.5 t239.5 240t88 329.5q0 133 -52 255t-140 210t-210 140t-255 52q-178 0 -329.5 -88t-240 -239.5t-88.5 -329.5zM483 717q0 151 101.5 259.5t249.5 108.5q84 0 157 -38.5t121 -104.5l-49 -33q-39 54 -98.5 84.5t-130.5 30.5q-125 0 -207 -89t-82 -218t82 -218t207 -89 q147 0 229 112l49 -33q-48 -66 -121 -104.5t-157 -38.5q-147 0 -249 110t-102 261z" />
<glyph unicode="&#xab;" horiz-adv-x="970" d="M123 514l248 363h88l-248 -363l248 -362h-88zM514 514l246 363h88l-246 -363l246 -362h-88z" />
<glyph unicode="&#xad;" horiz-adv-x="1026" d="M184 573v72h658v-72h-658z" />
<glyph unicode="&#xae;" horiz-adv-x="1669" d="M123 717q0 144 56.5 275.5t152 226.5t227.5 151.5t277 56.5q144 0 275.5 -56.5t226.5 -151.5t151.5 -226.5t56.5 -275.5q0 -145 -56.5 -277t-151.5 -227.5t-226.5 -152t-275.5 -56.5q-145 0 -277 56.5t-227.5 152t-152 227.5t-56.5 277zM178 717q0 -178 88.5 -329.5 t240 -240t329.5 -88.5t329 88.5t238.5 240t87.5 329.5q0 133 -52 255t-139.5 210t-209 140t-254.5 52q-178 0 -329.5 -88t-240 -239.5t-88.5 -329.5zM606 367v739h234q125 0 197.5 -60t72.5 -161q0 -84 -51.5 -141t-143.5 -74l236 -303h-68l-231 297h-12h-176v-297h-58z M664 723h176q100 0 155.5 43t55.5 119t-55.5 119t-155.5 43h-176v-324z" />
<glyph unicode="&#xaf;" horiz-adv-x="817" d="M184 1282v72h449v-72h-449z" />
<glyph unicode="&#xb0;" horiz-adv-x="790" d="M102 1139q0 120 86 205.5t207 85.5t207 -85.5t86 -205.5q0 -121 -86 -207t-207 -86t-207 86t-86 207zM158 1139q0 -98 69.5 -168t167.5 -70t168 70t70 168t-70 167.5t-168 69.5t-167.5 -69.5t-69.5 -167.5z" />
<glyph unicode="&#xb1;" horiz-adv-x="1171" d="M184 0v72h803v-72h-803zM184 700v74h367v365h72v-365h364v-74h-364v-364h-72v364h-367z" />
<glyph unicode="&#xb4;" horiz-adv-x="587" d="M184 1210l125 269h94l-167 -269h-52z" />
<glyph unicode="&#xb6;" horiz-adv-x="1144" d="M102 1147q0 134 96 210.5t230 76.5h594v-74h-154v-1542h-73v1542h-293v-1542h-74v1044q-134 0 -230 76t-96 209z" />
<glyph unicode="&#xb8;" horiz-adv-x="751" d="M184 -451l37 66q53 -29 115 -31.5t109 30.5t47 99q0 51 -33 81t-80.5 29.5t-99.5 -24.5l-39 51l71 150h60l-64 -133q98 33 179 -11t81 -149q0 -67 -36 -114.5t-91 -66.5t-123.5 -13.5t-132.5 36.5z" />
<glyph unicode="&#xbb;" horiz-adv-x="970" d="M123 152l246 362l-246 363h88l246 -363l-246 -362h-88zM514 152l246 362l-246 363h88l246 -363l-246 -362h-88z" />
<glyph unicode="&#xbf;" horiz-adv-x="864" d="M61 -59q0 56 12 105t37.5 92t47 71t57.5 67q42 46 65 75.5t52.5 78.5t43 107.5t13.5 128.5h72q0 -80 -15.5 -147t-48 -122t-58 -87.5t-69.5 -80.5q-68 -75 -101.5 -137.5t-33.5 -150.5q0 -120 85.5 -204.5t207.5 -84.5q123 0 201 74.5t104 179.5l70 -17 q-14 -57 -43 -109.5t-74 -99t-112 -74.5t-146 -28q-151 0 -259 106.5t-108 256.5zM358 997q0 27 19.5 46.5t46.5 19.5q28 0 48 -20t20 -46q0 -28 -20 -47.5t-48 -19.5t-47 19.5t-19 47.5z" />
<glyph unicode="&#xc0;" d="M61 0l535 1434h80l534 -1434h-82l-161 438h-662l-164 -438h-80zM332 512h606l-303 813zM428 1888h92l125 -268h-49z" />
<glyph unicode="&#xc1;" d="M61 0l535 1434h80l534 -1434h-82l-161 438h-662l-164 -438h-80zM332 512h606l-303 813zM629 1620l125 268h94l-168 -268h-51z" />
<glyph unicode="&#xc2;" d="M61 0l535 1434h80l534 -1434h-82l-161 438h-662l-164 -438h-80zM332 512h606l-303 813zM379 1620l219 268h74l219 -268h-74l-182 223l-182 -223h-74z" />
<glyph unicode="&#xc3;" d="M61 0l535 1434h80l534 -1434h-82l-161 438h-662l-164 -438h-80zM332 512h606l-303 813zM362 1620q7 50 25.5 84.5t43 49.5t43.5 20.5t38 5.5q55 0 135 -45q72 -37 107 -37q14 0 24.5 3t22.5 12t21 29t14 50l71 -12q-8 -48 -26 -80.5t-41.5 -47.5t-43.5 -20.5t-42 -5.5 q-62 0 -142 45q-68 35 -100 35q-10 0 -17.5 -2t-21.5 -9.5t-24 -29.5t-15 -55z" />
<glyph unicode="&#xc4;" d="M61 0l535 1434h80l534 -1434h-82l-161 438h-662l-164 -438h-80zM332 512h606l-303 813zM399 1737q0 29 20.5 49t49.5 20q30 0 51 -20t21 -49t-21.5 -50.5t-50.5 -21.5t-49.5 21.5t-20.5 50.5zM731 1737q0 29 21 49t51 20q29 0 49 -20t20 -49q0 -30 -20 -51t-49 -21 t-50.5 21.5t-21.5 50.5z" />
<glyph unicode="&#xc5;" d="M61 0l535 1434h80l534 -1434h-82l-161 438h-662l-164 -438h-80zM332 512h606l-303 813zM422 1755q0 88 63 150.5t152 62.5q88 0 150.5 -62.5t62.5 -150.5q0 -89 -62.5 -151t-150.5 -62q-89 0 -152 62t-63 151zM496 1755q0 -59 41 -100t100 -41q57 0 98 41.5t41 99.5 t-41 98.5t-98 40.5q-59 0 -100 -40.5t-41 -98.5z" />
<glyph unicode="&#xc6;" horiz-adv-x="1921" d="M61 0l717 1434h1000v-74h-680v-582h633v-73h-633v-633h700v-72h-774v438h-664l-219 -438h-80zM397 512h627v848h-203z" />
<glyph unicode="&#xc7;" horiz-adv-x="1452" d="M102 717q0 204 92 374t254.5 268.5t360.5 98.5q168 0 313.5 -71.5t247.5 -198.5l-61 -41q-91 112 -221.5 175.5t-278.5 63.5q-178 0 -323.5 -89t-227.5 -242.5t-82 -337.5t82 -337.5t227.5 -243t323.5 -89.5q148 0 278.5 63.5t221.5 174.5l61 -39q-102 -127 -248 -200 t-313 -73q-19 0 -29 2l-53 -108q99 31 179.5 -12.5t80.5 -147.5q0 -67 -35.5 -114.5t-91 -67t-123.5 -14.5t-131 36l37 66q39 -20 85 -26.5t87 2.5t68.5 40.5t27.5 81.5q0 79 -68 104.5t-143 -16.5l-38 49l61 132q-178 21 -320 123t-221.5 263t-79.5 351z" />
<glyph unicode="&#xc8;" horiz-adv-x="1079" d="M184 0v1434h754v-74h-682v-582h635v-73h-635v-633h700v-72h-772zM399 1888h93l124 -268h-49z" />
<glyph unicode="&#xc9;" horiz-adv-x="1079" d="M184 0v1434h754v-74h-682v-582h635v-73h-635v-633h700v-72h-772zM502 1620l125 268h94l-168 -268h-51z" />
<glyph unicode="&#xca;" horiz-adv-x="1079" d="M184 0v1434h754v-74h-682v-582h635v-73h-635v-633h700v-72h-772zM313 1620l219 268h74l219 -268h-73l-183 223l-182 -223h-74z" />
<glyph unicode="&#xcb;" horiz-adv-x="1079" d="M184 0v1434h754v-74h-682v-582h635v-73h-635v-633h700v-72h-772zM334 1737q0 29 20 49t49 20q30 0 51 -20t21 -49t-21.5 -50.5t-50.5 -21.5t-49 21t-20 51zM666 1737q0 29 21 49t50 20t49.5 -20t20.5 -49t-20.5 -50.5t-49.5 -21.5t-50 21.5t-21 50.5z" />
<glyph unicode="&#xcc;" horiz-adv-x="440" d="M31 1888h92l125 -268h-49zM184 0v1434h72v-1434h-72z" />
<glyph unicode="&#xcd;" horiz-adv-x="440" d="M184 0v1434h72v-1434h-72zM197 1620l125 268h94l-168 -268h-51z" />
<glyph unicode="&#xce;" horiz-adv-x="440" d="M-37 1620l219 268h74l219 -268h-74l-182 223l-182 -223h-74zM184 0v1434h72v-1434h-72z" />
<glyph unicode="&#xcf;" horiz-adv-x="440" d="M-16 1737q0 29 20 49t49 20q30 0 51 -20t21 -49t-21.5 -50.5t-50.5 -21.5t-49 21t-20 51zM184 0v1434h72v-1434h-72zM315 1737q0 29 21 49t51 20q29 0 49.5 -20t20.5 -49t-20.5 -50.5t-49.5 -21.5t-50.5 21.5t-21.5 50.5z" />
<glyph unicode="&#xd0;" horiz-adv-x="1519" d="M82 680v74h217v680h412q202 0 363.5 -93.5t252 -257t90.5 -366.5t-90.5 -366.5t-252 -257t-363.5 -93.5h-412v680h-217zM373 72h338q136 0 254.5 50.5t201 137.5t129.5 205.5t47 251.5q0 178 -80 324.5t-225 232.5t-327 86h-338v-606h475v-74h-475v-608z" />
<glyph unicode="&#xd1;" horiz-adv-x="1423" d="M184 0v1434h74l907 -1307v1307h74v-1434h-74l-907 1305v-1305h-74zM438 1620q7 50 25.5 84.5t43 49.5t43.5 20.5t38 5.5q55 0 135 -45q72 -37 106 -37q14 0 24.5 3t22.5 12t21 29t14 50l72 -12q-8 -48 -26 -80.5t-42 -47.5t-44 -20.5t-42 -5.5q-61 0 -141 45 q-68 35 -100 35q-10 0 -17.5 -2t-21.5 -9.5t-24 -29.5t-15 -55z" />
<glyph unicode="&#xd2;" horiz-adv-x="1617" d="M102 717q0 204 92 374t254.5 268.5t360.5 98.5t360.5 -98.5t254.5 -268.5t92 -374q0 -153 -54.5 -290.5t-147.5 -237t-225 -158t-280 -58.5t-280 58.5t-225 158t-147.5 237t-54.5 290.5zM176 717q0 -184 82 -337.5t227.5 -243t323.5 -89.5t323.5 89.5t227.5 243t82 337.5 t-82 337.5t-227.5 242.5t-323.5 89t-323.5 -89t-227.5 -242.5t-82 -337.5zM618 1888h93l125 -268h-50z" />
<glyph unicode="&#xd3;" horiz-adv-x="1617" d="M102 717q0 204 92 374t254.5 268.5t360.5 98.5t360.5 -98.5t254.5 -268.5t92 -374q0 -153 -54.5 -290.5t-147.5 -237t-225 -158t-280 -58.5t-280 58.5t-225 158t-147.5 237t-54.5 290.5zM176 717q0 -184 82 -337.5t227.5 -243t323.5 -89.5t323.5 89.5t227.5 243t82 337.5 t-82 337.5t-227.5 242.5t-323.5 89t-323.5 -89t-227.5 -242.5t-82 -337.5zM780 1620l125 268h94l-168 -268h-51z" />
<glyph unicode="&#xd4;" horiz-adv-x="1617" d="M102 717q0 204 92 374t254.5 268.5t360.5 98.5t360.5 -98.5t254.5 -268.5t92 -374q0 -153 -54.5 -290.5t-147.5 -237t-225 -158t-280 -58.5t-280 58.5t-225 158t-147.5 237t-54.5 290.5zM176 717q0 -184 82 -337.5t227.5 -243t323.5 -89.5t323.5 89.5t227.5 243t82 337.5 t-82 337.5t-227.5 242.5t-323.5 89t-323.5 -89t-227.5 -242.5t-82 -337.5zM553 1620l219 268h74l219 -268h-74l-182 223l-182 -223h-74z" />
<glyph unicode="&#xd5;" horiz-adv-x="1617" d="M102 717q0 204 92 374t254.5 268.5t360.5 98.5t360.5 -98.5t254.5 -268.5t92 -374q0 -153 -54.5 -290.5t-147.5 -237t-225 -158t-280 -58.5t-280 58.5t-225 158t-147.5 237t-54.5 290.5zM176 717q0 -184 82 -337.5t227.5 -243t323.5 -89.5t323.5 89.5t227.5 243t82 337.5 t-82 337.5t-227.5 242.5t-323.5 89t-323.5 -89t-227.5 -242.5t-82 -337.5zM537 1620q7 50 25.5 84.5t42.5 49.5t43 20.5t38 5.5q55 0 135 -45q72 -37 107 -37q14 0 24.5 3t22.5 12t21 29t14 50l71 -12q-8 -48 -26 -80.5t-41.5 -47.5t-43.5 -20.5t-42 -5.5q-62 0 -142 45 q-68 35 -100 35q-10 0 -17.5 -2t-21.5 -9.5t-24 -29.5t-15 -55z" />
<glyph unicode="&#xd6;" horiz-adv-x="1617" d="M102 717q0 204 92 374t254.5 268.5t360.5 98.5t360.5 -98.5t254.5 -268.5t92 -374q0 -153 -54.5 -290.5t-147.5 -237t-225 -158t-280 -58.5t-280 58.5t-225 158t-147.5 237t-54.5 290.5zM176 717q0 -184 82 -337.5t227.5 -243t323.5 -89.5t323.5 89.5t227.5 243t82 337.5 t-82 337.5t-227.5 242.5t-323.5 89t-323.5 -89t-227.5 -242.5t-82 -337.5zM573 1737q0 29 20.5 49t49.5 20q30 0 51 -20t21 -49t-21.5 -50.5t-50.5 -21.5t-49.5 21.5t-20.5 50.5zM905 1737q0 29 21 49t51 20q29 0 49.5 -20t20.5 -49t-20.5 -50.5t-49.5 -21.5t-50.5 21.5 t-21.5 50.5z" />
<glyph unicode="&#xd7;" horiz-adv-x="946" d="M164 352l258 258l-258 258l51 52l258 -258l258 258l51 -52l-258 -258l258 -258l-51 -51l-258 256l-258 -256z" />
<glyph unicode="&#xd8;" horiz-adv-x="1617" d="M102 717q0 153 54 290t147 236t225 157t281 58q151 0 283 -59.5t229 -165.5l135 123l49 -53l-139 -125q147 -199 147 -461q0 -153 -54 -290.5t-146.5 -237t-224 -158t-279.5 -58.5q-152 0 -284 59.5t-230 166.5l-135 -123l-49 55l139 125q-148 200 -148 461zM174 717 q0 -234 129 -412l963 879q-87 96 -204.5 149t-252.5 53q-179 0 -325 -89t-228 -242t-82 -338zM350 248q87 -95 205 -148t254 -53q178 0 323.5 89.5t227.5 243t82 337.5q0 231 -129 409z" />
<glyph unicode="&#xd9;" horiz-adv-x="1384" d="M184 516v918h74v-918q0 -214 117.5 -341.5t316.5 -127.5t316.5 127.5t117.5 341.5v918h74v-918q0 -248 -140 -395.5t-368 -147.5q-229 0 -368.5 147t-139.5 396zM522 1888h92l125 -268h-49z" />
<glyph unicode="&#xda;" horiz-adv-x="1384" d="M184 516v918h74v-918q0 -214 117.5 -341.5t316.5 -127.5t316.5 127.5t117.5 341.5v918h74v-918q0 -248 -140 -395.5t-368 -147.5q-229 0 -368.5 147t-139.5 396zM664 1620l124 268h95l-168 -268h-51z" />
<glyph unicode="&#xdb;" horiz-adv-x="1384" d="M184 516v918h74v-918q0 -214 117.5 -341.5t316.5 -127.5t316.5 127.5t117.5 341.5v918h74v-918q0 -248 -140 -395.5t-368 -147.5q-229 0 -368.5 147t-139.5 396zM436 1620l219 268h74l219 -268h-74l-182 223l-182 -223h-74z" />
<glyph unicode="&#xdc;" horiz-adv-x="1384" d="M184 516v918h74v-918q0 -214 117.5 -341.5t316.5 -127.5t316.5 127.5t117.5 341.5v918h74v-918q0 -248 -140 -395.5t-368 -147.5q-229 0 -368.5 147t-139.5 396zM457 1737q0 29 20 49t49 20q30 0 51 -20t21 -49t-21.5 -50.5t-50.5 -21.5t-49 21t-20 51zM788 1737 q0 29 21 49t51 20q29 0 49.5 -20t20.5 -49t-20.5 -50.5t-49.5 -21.5t-50.5 21.5t-21.5 50.5z" />
<glyph unicode="&#xdd;" horiz-adv-x="1325" d="M61 1434h93l510 -844l510 844h90l-564 -918v-516h-73v516zM635 1620l125 268h94l-168 -268h-51z" />
<glyph unicode="&#xde;" horiz-adv-x="1150" d="M184 0v1434h74v-283h320q229 0 360 -121.5t131 -312.5q0 -193 -131 -314.5t-360 -121.5h-320v-281h-74zM258 354h320q192 0 304.5 99.5t112.5 263.5q0 163 -112.5 262.5t-304.5 99.5h-320v-725z" />
<glyph unicode="&#xdf;" horiz-adv-x="1144" d="M174 0v1030q0 111 48.5 204t140 149.5t208.5 56.5q113 0 200.5 -55.5t131 -139t43.5 -174.5q0 -109 -57.5 -195t-159.5 -124q71 -13 129.5 -40t105.5 -70t73 -107t26 -144q0 -200 -144 -312.5t-360 -78.5v74q186 -36 307 54.5t121 262.5q0 67 -19 120.5t-52 87.5 t-71.5 57.5t-84.5 35t-82.5 16.5t-73.5 5h-45v65h33q131 0 204.5 78.5t73.5 214.5q0 120 -83 207.5t-216 87.5q-146 0 -235.5 -94.5t-89.5 -241.5v-1030h-72z" />
<glyph unicode="&#xe0;" horiz-adv-x="1071" d="M82 274q0 66 22.5 117.5t54 85t90.5 56.5t104.5 34.5t126.5 17.5t125.5 6.5t129.5 0.5h21h69v57q0 73 -17.5 133.5t-53.5 108t-96 74t-140 26.5q-52 0 -99 -11t-86.5 -32.5t-64 -38t-55.5 -41.5l-61 45q78 66 164.5 108t201.5 42q178 0 278.5 -105t100.5 -309v-649h-72 v182q-58 -88 -158 -148.5t-239 -60.5q-151 0 -248.5 86t-97.5 215zM160 274q0 -97 77 -162t191 -65q89 0 166 29t124 72t74.5 85t32.5 76v209q-25 2 -71 2h-51q-44 2 -91 0.5t-93.5 -3t-91 -9t-84.5 -17.5t-73.5 -29t-58 -44t-38 -61.5t-13.5 -82.5zM360 1479h93l125 -269 h-50z" />
<glyph unicode="&#xe1;" horiz-adv-x="1071" d="M82 274q0 66 22.5 117.5t54 85t90.5 56.5t104.5 34.5t126.5 17.5t125.5 6.5t129.5 0.5h21h69v57q0 73 -17.5 133.5t-53.5 108t-96 74t-140 26.5q-52 0 -99 -11t-86.5 -32.5t-64 -38t-55.5 -41.5l-61 45q78 66 164.5 108t201.5 42q178 0 278.5 -105t100.5 -309v-649h-72 v182q-58 -88 -158 -148.5t-239 -60.5q-151 0 -248.5 86t-97.5 215zM160 274q0 -97 77 -162t191 -65q89 0 166 29t124 72t74.5 85t32.5 76v209q-25 2 -71 2h-51q-44 2 -91 0.5t-93.5 -3t-91 -9t-84.5 -17.5t-73.5 -29t-58 -44t-38 -61.5t-13.5 -82.5zM461 1210l125 269h94 l-168 -269h-51z" />
<glyph unicode="&#xe2;" horiz-adv-x="1071" d="M82 274q0 66 22.5 117.5t54 85t90.5 56.5t104.5 34.5t126.5 17.5t125.5 6.5t129.5 0.5h21h69v57q0 73 -17.5 133.5t-53.5 108t-96 74t-140 26.5q-52 0 -99 -11t-86.5 -32.5t-64 -38t-55.5 -41.5l-61 45q78 66 164.5 108t201.5 42q178 0 278.5 -105t100.5 -309v-649h-72 v182q-58 -88 -158 -148.5t-239 -60.5q-151 0 -248.5 86t-97.5 215zM160 274q0 -97 77 -162t191 -65q89 0 166 29t124 72t74.5 85t32.5 76v209q-25 2 -71 2h-51q-44 2 -91 0.5t-93.5 -3t-91 -9t-84.5 -17.5t-73.5 -29t-58 -44t-38 -61.5t-13.5 -82.5zM274 1210l220 269h73 l219 -269h-73l-183 224l-182 -224h-74z" />
<glyph unicode="&#xe3;" horiz-adv-x="1071" d="M82 274q0 66 22.5 117.5t54 85t90.5 56.5t104.5 34.5t126.5 17.5t125.5 6.5t129.5 0.5h21h69v57q0 73 -17.5 133.5t-53.5 108t-96 74t-140 26.5q-52 0 -99 -11t-86.5 -32.5t-64 -38t-55.5 -41.5l-61 45q78 66 164.5 108t201.5 42q178 0 278.5 -105t100.5 -309v-649h-72 v182q-58 -88 -158 -148.5t-239 -60.5q-151 0 -248.5 86t-97.5 215zM160 274q0 -97 77 -162t191 -65q89 0 166 29t124 72t74.5 85t32.5 76v209q-25 2 -71 2h-51q-44 2 -91 0.5t-93.5 -3t-91 -9t-84.5 -17.5t-73.5 -29t-58 -44t-38 -61.5t-13.5 -82.5zM258 1210 q7 50 25.5 84.5t43 49.5t43.5 20.5t38 5.5q55 0 135 -45q72 -37 106 -37q14 0 24.5 3t22.5 12t21 29t14 50l72 -12q-26 -153 -154 -153q-61 0 -141 45q-66 34 -100 34q-10 0 -17.5 -2t-21.5 -9.5t-24 -29.5t-15 -55z" />
<glyph unicode="&#xe4;" horiz-adv-x="1071" d="M82 274q0 66 22.5 117.5t54 85t90.5 56.5t104.5 34.5t126.5 17.5t125.5 6.5t129.5 0.5h21h69v57q0 73 -17.5 133.5t-53.5 108t-96 74t-140 26.5q-52 0 -99 -11t-86.5 -32.5t-64 -38t-55.5 -41.5l-61 45q78 66 164.5 108t201.5 42q178 0 278.5 -105t100.5 -309v-649h-72 v182q-58 -88 -158 -148.5t-239 -60.5q-151 0 -248.5 86t-97.5 215zM160 274q0 -97 77 -162t191 -65q89 0 166 29t124 72t74.5 85t32.5 76v209q-25 2 -71 2h-51q-44 2 -91 0.5t-93.5 -3t-91 -9t-84.5 -17.5t-73.5 -29t-58 -44t-38 -61.5t-13.5 -82.5zM293 1327q0 29 20 49.5 t49 20.5t50.5 -20.5t21.5 -49.5t-21.5 -50.5t-50.5 -21.5t-49 21t-20 51zM625 1327q0 29 21 49.5t50 20.5t49.5 -20.5t20.5 -49.5t-20.5 -50.5t-49.5 -21.5t-50 21.5t-21 50.5z" />
<glyph unicode="&#xe5;" horiz-adv-x="1071" d="M82 274q0 66 22.5 117.5t54 85t90.5 56.5t104.5 34.5t126.5 17.5t125.5 6.5t129.5 0.5h21h69v57q0 73 -17.5 133.5t-53.5 108t-96 74t-140 26.5q-52 0 -99 -11t-86.5 -32.5t-64 -38t-55.5 -41.5l-61 45q78 66 164.5 108t201.5 42q178 0 278.5 -105t100.5 -309v-649h-72 v182q-58 -88 -158 -148.5t-239 -60.5q-151 0 -248.5 86t-97.5 215zM160 274q0 -97 77 -162t191 -65q89 0 166 29t124 72t74.5 85t32.5 76v209q-25 2 -71 2h-51q-44 2 -91 0.5t-93.5 -3t-91 -9t-84.5 -17.5t-73.5 -29t-58 -44t-38 -61.5t-13.5 -82.5zM315 1386q0 88 63 150.5 t152 62.5q88 0 150.5 -62.5t62.5 -150.5q0 -89 -62.5 -150.5t-150.5 -61.5q-90 0 -152.5 61.5t-62.5 150.5zM389 1386q0 -58 41.5 -99.5t99.5 -41.5q57 0 98.5 41.5t41.5 99.5t-41.5 99t-98.5 41q-59 0 -100 -41t-41 -99z" />
<glyph unicode="&#xe6;" horiz-adv-x="1871" d="M82 256q0 63 21 112t57.5 80t86 53.5t106 32t117.5 16t121 5.5t115 0h52h67v98q0 47 -11 93.5t-35.5 90.5t-59 77.5t-86 54t-113.5 20.5q-68 0 -131.5 -21.5t-98 -43.5t-75.5 -56l-61 45q78 66 164.5 108t201.5 42q138 0 234 -75t129 -204q61 128 173.5 203.5t260.5 75.5 q144 0 254.5 -75t168 -208t48.5 -299h-887q8 -119 64.5 -217.5t154 -157.5t217.5 -59q115 0 195.5 43.5t148.5 124.5l66 -43q-160 -199 -410 -199q-155 0 -273.5 77.5t-180.5 209.5q-17 -46 -53.5 -93.5t-91.5 -92t-136 -73t-172 -28.5q-153 0 -250.5 78t-97.5 205zM162 256 q0 -95 76 -152t192 -57q72 0 136.5 19t108.5 48.5t78 66t51 69t21 59.5v172q-11 0 -34 1t-35 1q-22 0 -65.5 1t-74.5 1.5t-77 -1t-80 -4.5t-75.5 -10t-71.5 -18t-60 -29t-48.5 -40.5t-30 -55t-11.5 -71.5zM901 555h811q-8 188 -117 311t-278 123q-177 0 -291 -125t-125 -309 z" />
<glyph unicode="&#xe7;" horiz-adv-x="1124" d="M82 518q0 148 70.5 273t193.5 198.5t270 73.5q138 0 256.5 -66.5t190.5 -179.5l-66 -35q-63 96 -163 151.5t-218 55.5q-192 0 -326 -138t-134 -333t134 -333t326 -138q117 0 217.5 56.5t163.5 152.5l66 -35q-72 -114 -190 -181t-257 -67q-7 0 -22.5 1t-22.5 1l-53 -108 q99 31 179.5 -12.5t80.5 -147.5q0 -67 -35.5 -114.5t-91 -67t-123.5 -14.5t-131 36l37 66q39 -20 85 -26.5t87 2.5t68.5 40.5t27.5 81.5q0 79 -67.5 104.5t-142.5 -16.5l-39 49l63 136q-187 35 -310.5 186t-123.5 348z" />
<glyph unicode="&#xe8;" horiz-adv-x="1159" d="M82 518q0 147 63 271t179.5 199t263.5 75q144 0 258.5 -75t176 -208.5t52.5 -298.5h-919q14 -182 142.5 -308t311.5 -126q218 0 359 168l65 -43q-160 -199 -424 -199q-152 0 -273.5 74t-188 198t-66.5 273zM156 555h843q-9 186 -125 310t-286 124q-178 0 -299 -125.5 t-133 -308.5zM410 1479h92l125 -269h-49z" />
<glyph unicode="&#xe9;" horiz-adv-x="1159" d="M82 518q0 147 63 271t179.5 199t263.5 75q144 0 258.5 -75t176 -208.5t52.5 -298.5h-919q14 -182 142.5 -308t311.5 -126q218 0 359 168l65 -43q-160 -199 -424 -199q-152 0 -273.5 74t-188 198t-66.5 273zM156 555h843q-9 186 -125 310t-286 124q-178 0 -299 -125.5 t-133 -308.5zM530 1210l125 269h95l-168 -269h-52z" />
<glyph unicode="&#xea;" horiz-adv-x="1159" d="M82 518q0 147 63 271t179.5 199t263.5 75q144 0 258.5 -75t176 -208.5t52.5 -298.5h-919q14 -182 142.5 -308t311.5 -126q218 0 359 168l65 -43q-160 -199 -424 -199q-152 0 -273.5 74t-188 198t-66.5 273zM156 555h843q-9 186 -125 310t-286 124q-178 0 -299 -125.5 t-133 -308.5zM344 1210l219 269h74l219 -269h-74l-182 224l-182 -224h-74z" />
<glyph unicode="&#xeb;" horiz-adv-x="1159" d="M82 518q0 147 63 271t179.5 199t263.5 75q144 0 258.5 -75t176 -208.5t52.5 -298.5h-919q14 -182 142.5 -308t311.5 -126q218 0 359 168l65 -43q-160 -199 -424 -199q-152 0 -273.5 74t-188 198t-66.5 273zM156 555h843q-9 186 -125 310t-286 124q-178 0 -299 -125.5 t-133 -308.5zM362 1327q0 29 20.5 49.5t49.5 20.5t50.5 -20.5t21.5 -49.5t-21.5 -50.5t-50.5 -21.5t-49.5 21.5t-20.5 50.5zM694 1327q0 29 21.5 49.5t50.5 20.5t49.5 -20.5t20.5 -49.5t-20.5 -50.5t-49.5 -21.5t-50.5 21.5t-21.5 50.5z" />
<glyph unicode="&#xec;" horiz-adv-x="421" d="M18 1479h93l125 -269h-50zM174 0v1038h74v-1038h-74z" />
<glyph unicode="&#xed;" horiz-adv-x="421" d="M174 0v1038h74v-1038h-74zM195 1210l124 269h95l-168 -269h-51z" />
<glyph unicode="&#xee;" horiz-adv-x="421" d="M-45 1210l219 269h74l219 -269h-74l-182 224l-182 -224h-74zM174 0v1038h74v-1038h-74z" />
<glyph unicode="&#xef;" horiz-adv-x="421" d="M-25 1327q0 29 20.5 49.5t49.5 20.5t50.5 -20.5t21.5 -49.5t-21.5 -50.5t-50.5 -21.5t-49.5 21.5t-20.5 50.5zM174 0v1038h74v-1038h-74zM307 1327q0 29 21.5 49.5t50.5 20.5t49.5 -20.5t20.5 -49.5t-20.5 -50.5t-49.5 -21.5t-50.5 21.5t-21.5 50.5z" />
<glyph unicode="&#xf0;" horiz-adv-x="1167" d="M82 469q0 136 66.5 250t181 180t250.5 66q121 0 222 -52.5t167 -144.5l4 2q-91 257 -311 457l-293 -144l-33 66l264 129q-121 98 -266 156l69 47q148 -66 271 -166l215 104l33 -65l-187 -92q160 -148 255 -347t95 -428q0 -220 -145 -367t-360 -147q-136 0 -250.5 66 t-181 180t-66.5 250zM156 469q0 -110 48.5 -204.5t147 -156t228.5 -61.5q131 0 230.5 61.5t148.5 156t49 204.5q0 82 -30.5 158t-84.5 135.5t-136 95t-177 35.5t-176 -35.5t-134.5 -95t-83.5 -135.5t-30 -158z" />
<glyph unicode="&#xf1;" horiz-adv-x="1181" d="M174 0v1038h74v-202q50 102 143 164.5t217 62.5q77 0 144 -26.5t113 -70t79 -100t48.5 -116.5t15.5 -119v-631h-74v631q0 64 -20 125.5t-58.5 114.5t-103 85.5t-144.5 32.5q-110 0 -194.5 -59t-125 -143.5t-40.5 -174.5v-612h-74zM317 1210q7 50 25.5 84.5t43 49.5 t43.5 20.5t38 5.5q55 0 135 -45q72 -37 107 -37q14 0 24.5 3t22.5 12t21 29t14 50l71 -12q-26 -153 -153 -153q-62 0 -142 45q-66 34 -100 34q-10 0 -17.5 -2t-21.5 -9.5t-24 -29.5t-15 -55z" />
<glyph unicode="&#xf2;" horiz-adv-x="1230" d="M82 518q0 147 70.5 272.5t193 199t268.5 73.5q147 0 270 -73.5t194 -199t71 -272.5t-70.5 -272t-194 -199t-270.5 -74q-146 0 -268.5 74t-193 199t-70.5 272zM154 518q0 -195 134 -333t326 -138q127 0 233 63.5t167 172t61 235.5t-61 235.5t-167 172t-233 63.5 q-192 0 -326 -138t-134 -333zM444 1479h93l125 -269h-50z" />
<glyph unicode="&#xf3;" horiz-adv-x="1230" d="M82 518q0 147 70.5 272.5t193 199t268.5 73.5q147 0 270 -73.5t194 -199t71 -272.5t-70.5 -272t-194 -199t-270.5 -74q-146 0 -268.5 74t-193 199t-70.5 272zM154 518q0 -195 134 -333t326 -138q127 0 233 63.5t167 172t61 235.5t-61 235.5t-167 172t-233 63.5 q-192 0 -326 -138t-134 -333zM584 1210l125 269h94l-168 -269h-51z" />
<glyph unicode="&#xf4;" horiz-adv-x="1230" d="M82 518q0 147 70.5 272.5t193 199t268.5 73.5q147 0 270 -73.5t194 -199t71 -272.5t-70.5 -272t-194 -199t-270.5 -74q-146 0 -268.5 74t-193 199t-70.5 272zM154 518q0 -195 134 -333t326 -138q127 0 233 63.5t167 172t61 235.5t-61 235.5t-167 172t-233 63.5 q-192 0 -326 -138t-134 -333zM358 1210l220 269h73l219 -269h-73l-183 224l-182 -224h-74z" />
<glyph unicode="&#xf5;" horiz-adv-x="1230" d="M82 518q0 147 70.5 272.5t193 199t268.5 73.5q147 0 270 -73.5t194 -199t71 -272.5t-70.5 -272t-194 -199t-270.5 -74q-146 0 -268.5 74t-193 199t-70.5 272zM154 518q0 -195 134 -333t326 -138q127 0 233 63.5t167 172t61 235.5t-61 235.5t-167 172t-233 63.5 q-192 0 -326 -138t-134 -333zM342 1210q7 50 25.5 84.5t43 49.5t43.5 20.5t38 5.5q55 0 135 -45q72 -37 106 -37q14 0 24.5 3t22.5 12t21 29t14 50l72 -12q-26 -153 -154 -153q-61 0 -141 45q-66 34 -100 34q-10 0 -17.5 -2t-21.5 -9.5t-24 -29.5t-15 -55z" />
<glyph unicode="&#xf6;" horiz-adv-x="1230" d="M82 518q0 147 70.5 272.5t193 199t268.5 73.5q147 0 270 -73.5t194 -199t71 -272.5t-70.5 -272t-194 -199t-270.5 -74q-146 0 -268.5 74t-193 199t-70.5 272zM154 518q0 -195 134 -333t326 -138q127 0 233 63.5t167 172t61 235.5t-61 235.5t-167 172t-233 63.5 q-192 0 -326 -138t-134 -333zM379 1327q0 29 20.5 49.5t49.5 20.5t50 -20.5t21 -49.5t-21 -50.5t-50 -21.5t-49.5 21.5t-20.5 50.5zM711 1327q0 29 21 49.5t50 20.5t49.5 -20.5t20.5 -49.5t-20.5 -50.5t-49.5 -21.5t-50 21.5t-21 50.5z" />
<glyph unicode="&#xf7;" horiz-adv-x="1171" d="M184 573v72h803v-72h-803zM518 223q0 28 20 48t48 20q27 0 46 -20t19 -48t-18.5 -47.5t-46.5 -19.5t-48 19.5t-20 47.5zM518 995q0 28 20 48t48 20q27 0 46 -20t19 -48t-18.5 -46.5t-46.5 -18.5t-48 19t-20 46z" />
<glyph unicode="&#xf8;" horiz-adv-x="1230" d="M82 518q0 148 70.5 273t193.5 198.5t270 73.5q107 0 203 -41t170 -115l109 99l49 -54l-111 -100q113 -144 113 -334q0 -146 -70.5 -271.5t-193.5 -199.5t-269 -74q-108 0 -204 41t-168 115l-109 -98l-49 53l109 100q-113 149 -113 334zM156 518q0 -158 94 -285l686 625 q-134 131 -320 131q-192 0 -326 -138t-134 -333zM297 178q131 -131 319 -131q127 0 233 63.5t167 172t61 235.5q0 161 -94 285z" />
<glyph unicode="&#xf9;" horiz-adv-x="1181" d="M174 406v632h74v-632q0 -50 12 -100t38.5 -97t63.5 -83t91.5 -57.5t119.5 -21.5q83 0 153 34.5t114.5 89.5t69 121t24.5 132v614h74v-1038h-74v201q-50 -102 -143.5 -165t-217.5 -63q-96 0 -174.5 40t-126 104.5t-73 139t-25.5 149.5zM440 1479h92l125 -269h-49z" />
<glyph unicode="&#xfa;" horiz-adv-x="1181" d="M174 406v632h74v-632q0 -50 12 -100t38.5 -97t63.5 -83t91.5 -57.5t119.5 -21.5q83 0 153 34.5t114.5 89.5t69 121t24.5 132v614h74v-1038h-74v201q-50 -102 -143.5 -165t-217.5 -63q-96 0 -174.5 40t-126 104.5t-73 139t-25.5 149.5zM563 1210l125 269h94l-168 -269h-51 z" />
<glyph unicode="&#xfb;" horiz-adv-x="1181" d="M174 406v632h74v-632q0 -50 12 -100t38.5 -97t63.5 -83t91.5 -57.5t119.5 -21.5q83 0 153 34.5t114.5 89.5t69 121t24.5 132v614h74v-1038h-74v201q-50 -102 -143.5 -165t-217.5 -63q-96 0 -174.5 40t-126 104.5t-73 139t-25.5 149.5zM334 1210l219 269h74l219 -269h-74 l-182 224l-182 -224h-74z" />
<glyph unicode="&#xfc;" horiz-adv-x="1181" d="M174 406v632h74v-632q0 -50 12 -100t38.5 -97t63.5 -83t91.5 -57.5t119.5 -21.5q83 0 153 34.5t114.5 89.5t69 121t24.5 132v614h74v-1038h-74v201q-50 -102 -143.5 -165t-217.5 -63q-96 0 -174.5 40t-126 104.5t-73 139t-25.5 149.5zM354 1327q0 29 20.5 49.5t49.5 20.5 t50.5 -20.5t21.5 -49.5t-21.5 -50.5t-50.5 -21.5t-49.5 21.5t-20.5 50.5zM686 1327q0 29 21.5 49.5t50.5 20.5t49 -20.5t20 -49.5q0 -30 -20 -51t-49 -21t-50.5 21.5t-21.5 50.5z" />
<glyph unicode="&#xfd;" horiz-adv-x="1028" d="M41 1038h82l414 -884l370 884h80l-602 -1433h-80l193 458zM487 1210l125 269h95l-168 -269h-52z" />
<glyph unicode="&#xfe;" horiz-adv-x="1292" d="M174 -395v1829h74v-660q62 132 178 210.5t266 78.5q146 0 265.5 -73.5t186 -198.5t66.5 -273q0 -147 -66.5 -272t-186 -199t-265.5 -74q-150 0 -266 78.5t-178 210.5v-657h-74zM248 518q0 -128 57 -236t159.5 -171.5t227.5 -63.5q191 0 319 137.5t128 333.5t-128 333.5 t-319 137.5q-125 0 -227.5 -63.5t-159.5 -171.5t-57 -236z" />
<glyph unicode="&#xff;" horiz-adv-x="1028" d="M41 1038h82l414 -884l370 884h80l-602 -1433h-80l193 458zM276 1327q0 29 20.5 49.5t49.5 20.5t50.5 -20.5t21.5 -49.5t-21.5 -50.5t-50.5 -21.5t-49.5 21.5t-20.5 50.5zM608 1327q0 29 21.5 49.5t50.5 20.5t49.5 -20.5t20.5 -49.5t-20.5 -50.5t-49.5 -21.5t-50.5 21.5 t-21.5 50.5z" />
<glyph unicode="&#x152;" horiz-adv-x="1933" d="M102 717q0 203 90 366.5t251.5 257t363.5 93.5h983v-74h-680v-582h633v-73h-633v-633h700v-72h-1003q-202 0 -363.5 93.5t-251.5 257t-90 366.5zM174 717q0 -178 80 -325t225.5 -233.5t327.5 -86.5h229v1288h-229q-182 0 -327.5 -86t-225.5 -232.5t-80 -324.5z" />
<glyph unicode="&#x153;" horiz-adv-x="2084" d="M82 518q0 148 66 273t185 198.5t265 73.5q164 0 291 -92t184 -242q53 151 173 242.5t284 91.5q144 0 254.5 -75t168 -208t48.5 -299h-887q12 -183 134 -308.5t304 -125.5q115 0 194.5 43t147.5 125l66 -43q-160 -199 -408 -199q-172 0 -297.5 92t-179.5 244 q-59 -150 -186.5 -243t-290.5 -93q-146 0 -265 74t-185 198.5t-66 272.5zM156 518q0 -128 56 -235.5t158 -171.5t228 -64t227.5 64t157 171.5t55.5 235.5t-55.5 235.5t-157 171.5t-227.5 64t-228 -64t-158 -171.5t-56 -235.5zM1114 555h811q-8 188 -117 311t-278 123 q-177 0 -291 -125t-125 -309z" />
<glyph unicode="&#x178;" horiz-adv-x="1325" d="M61 1434h93l510 -844l510 844h90l-564 -918v-516h-73v516zM426 1737q0 29 20.5 49t49.5 20t50 -20t21 -49t-21 -50.5t-50 -21.5t-49.5 21.5t-20.5 50.5zM758 1737q0 29 21 49t50 20t49.5 -20t20.5 -49t-20.5 -50.5t-49.5 -21.5t-50 21.5t-21 50.5z" />
<glyph unicode="&#x2c6;" horiz-adv-x="880" d="M184 1210l219 269h74l219 -269h-73l-183 224l-182 -224h-74z" />
<glyph unicode="&#x2dc;" horiz-adv-x="913" d="M184 1210q7 50 25.5 84.5t43 49.5t43.5 20.5t38 5.5q55 0 135 -45q72 -37 106 -37q14 0 24.5 3t22.5 12t21 29t14 50l72 -12q-26 -153 -154 -153q-61 0 -141 45q-66 34 -100 34q-10 0 -17.5 -2t-21.5 -9.5t-24 -29.5t-15 -55z" />
<glyph unicode="&#x2000;" horiz-adv-x="984" />
<glyph unicode="&#x2001;" horiz-adv-x="1968" />
<glyph unicode="&#x2002;" horiz-adv-x="984" />
<glyph unicode="&#x2003;" horiz-adv-x="1968" />
<glyph unicode="&#x2004;" horiz-adv-x="656" />
<glyph unicode="&#x2005;" horiz-adv-x="492" />
<glyph unicode="&#x2006;" horiz-adv-x="328" />
<glyph unicode="&#x2007;" horiz-adv-x="328" />
<glyph unicode="&#x2008;" horiz-adv-x="246" />
<glyph unicode="&#x2009;" horiz-adv-x="393" />
<glyph unicode="&#x200a;" horiz-adv-x="109" />
<glyph unicode="&#x2010;" horiz-adv-x="1026" d="M184 573v72h658v-72h-658z" />
<glyph unicode="&#x2011;" horiz-adv-x="1026" d="M184 573v72h658v-72h-658z" />
<glyph unicode="&#x2012;" horiz-adv-x="1026" d="M184 573v72h658v-72h-658z" />
<glyph unicode="&#x2013;" horiz-adv-x="1134" d="M184 573v72h766v-72h-766z" />
<glyph unicode="&#x2014;" horiz-adv-x="1245" d="M184 573v72h877v-72h-877z" />
<glyph unicode="&#x2018;" horiz-adv-x="462" d="M102 1090l217 350l41 -23l-172 -377z" />
<glyph unicode="&#x2019;" horiz-adv-x="462" d="M102 1063l172 377l86 -49l-219 -351z" />
<glyph unicode="&#x201a;" horiz-adv-x="421" d="M61 -209l172 379l86 -51l-219 -350z" />
<glyph unicode="&#x201c;" horiz-adv-x="782" d="M102 1090l217 350l41 -23l-172 -377zM422 1090l217 350l41 -23l-172 -377z" />
<glyph unicode="&#x201d;" horiz-adv-x="782" d="M102 1063l172 377l86 -49l-219 -351zM422 1063l172 377l86 -49l-219 -351z" />
<glyph unicode="&#x201e;" horiz-adv-x="741" d="M61 -209l172 379l86 -51l-219 -350zM381 -209l172 379l86 -51l-219 -350z" />
<glyph unicode="&#x2022;" horiz-adv-x="591" d="M164 645q0 55 38.5 94t92.5 39q55 0 94 -39t39 -94q0 -54 -39 -92.5t-94 -38.5q-54 0 -92.5 38.5t-38.5 92.5z" />
<glyph unicode="&#x2026;" horiz-adv-x="1013" d="M102 41q0 27 19.5 46t46.5 19q28 0 48 -19t20 -46q0 -28 -20 -48t-48 -20q-26 0 -46 20t-20 48zM440 41q0 27 19.5 46t46.5 19q28 0 47.5 -18.5t19.5 -46.5t-19.5 -48t-47.5 -20q-26 0 -46 20t-20 48zM778 41q0 27 19.5 46t46.5 19q28 0 47.5 -18.5t19.5 -46.5t-19.5 -48 t-47.5 -20q-26 0 -46 20t-20 48z" />
<glyph unicode="&#x202f;" horiz-adv-x="393" />
<glyph unicode="&#x2039;" horiz-adv-x="581" d="M123 514l248 363h88l-248 -363l248 -362h-88z" />
<glyph unicode="&#x203a;" horiz-adv-x="579" d="M123 152l246 362l-246 363h88l246 -363l-246 -362h-88z" />
<glyph unicode="&#x205f;" horiz-adv-x="492" />
<glyph unicode="&#x20ac;" horiz-adv-x="1558" d="M61 557v55h154q-6 52 -6 105q0 51 6 104h-154v53h162q52 256 242.5 420t449.5 164q168 0 314.5 -71.5t247.5 -198.5l-62 -41q-91 112 -221.5 175.5t-278.5 63.5q-229 0 -398.5 -144t-217.5 -368h713v-53h-723q-8 -70 -8 -104q0 -39 8 -105h723v-55h-713 q48 -224 217.5 -367t398.5 -143q148 0 278.5 63.5t221.5 174.5l62 -39q-102 -127 -248.5 -200t-313.5 -73q-259 0 -449.5 164t-242.5 420h-162z" />
<glyph unicode="&#x25fc;" horiz-adv-x="1034" d="M0 0v1034h1034v-1034h-1034z" />
</font>
</defs>
</svg>
